<?xml version="1.0" standalone="no"?>
<!DOCTYPE svg PUBLIC "-//W3C//DTD SVG 1.1//EN" "http://www.w3.org/Graphics/SVG/1.1/DTD/svg11.dtd" >
<svg xmlns="http://www.w3.org/2000/svg">
<metadata>
Created by FontPrep 20130207 at Tue Feb  7 10:04:50 2017
 By Ville Tervo
Copyright (c) 2016 by Schick Toikka. All rights reserved.
</metadata>
<defs>
<font id="2fc95a16d47335df841ce543b095cbd2" horiz-adv-x='1024' >
  <font-face 
    font-family="Futurice-Regular"
    font-weight="400"
    font-stretch="normal"
    units-per-em="2048"
    panose-1="0 0 5 0 0 0 0 0 0 0"
    ascent="1536"
    descent="-512"
    x-height="1036"
    cap-height="1364"
    bbox="-205 -637 1935 1917"
    underline-thickness="102"
    underline-position="-102"
    unicode-range="U+0020-FB02"
  />
<missing-glyph 
d="M1004 1442h-758l379 -776zM655 602l379 -774v1552zM594 602l-379 778v-1552zM625 539l-379 -777h758zM1090 -291h-930v1786h930v-1786z" />
    <glyph glyph-name="fi" unicode="fi" horiz-adv-x="1347" 
d="M963 1391q0 53 35 89q36 36 87 36t87 -36t36 -89t-36 -89t-87 -36t-87 36q-35 36 -35 89zM1167 0h-163v1036h163v-1036zM84 1036h164v74q0 406 332 406q137 0 239 -68l-67 -127q-70 51 -163 51t-135 -55t-42 -207v-74h354v-139h-354v-897h-164v897h-164v139z" />
    <glyph glyph-name="fl" unicode="fl" horiz-adv-x="1351" 
d="M1167 0h-163v1495h163v-1495zM84 1036h164v74q0 406 332 406q137 0 239 -68l-67 -127q-70 51 -163 51t-135 -55t-42 -207v-74h354v-139h-354v-897h-164v897h-164v139z" />
    <glyph glyph-name=".notdef" 
d="M1004 1442h-758l379 -776zM655 602l379 -774v1552zM594 602l-379 778v-1552zM625 539l-379 -777h758zM1090 -291h-930v1786h930v-1786z" />
    <glyph glyph-name=".null" horiz-adv-x="0" 
 />
    <glyph glyph-name="nonmarkingreturn" horiz-adv-x="681" 
 />
    <glyph glyph-name="space" unicode=" " horiz-adv-x="512" 
 />
    <glyph glyph-name="exclam" unicode="!" horiz-adv-x="688" 
d="M205 119q0 57 41 98t98 41t98 -41t41 -98t-41 -99t-98 -40q-57 0 -98 41t-41 98zM254 1364h178v-553l-35 -336h-100l-43 336v553z" />
    <glyph glyph-name="quotedbl" unicode="&#x22;" horiz-adv-x="800" 
d="M483 1495h195l-37 -469h-121zM123 1495h194l-36 -469h-121z" />
    <glyph glyph-name="numbersign" unicode="#" 
d="M483 846v-328h283v328h-283zM156 846v127h192v391h135v-391h283v391h135v-391h193v-127h-193v-328h189v-127h-189v-391h-135v391h-283v-391h-135v391h-192v127h192v328h-192z" />
    <glyph glyph-name="dollar" unicode="$" horiz-adv-x="1218" 
d="M324 1012q0 -166 196 -217l15 -4v423q-95 -16 -153 -71t-58 -131zM934 371q0 162 -186 211l-70 18v-457q124 11 190 69t66 159zM535 -172v176q-162 16 -272 99t-140 221l156 45q45 -188 256 -222v490l-68 18q-301 80 -301 351q0 141 100 236t269 116v178h143v-176
q144 -14 240 -94t126 -207l-157 -43q-45 166 -209 201v-463l127 -33q291 -74 291 -346q0 -164 -108 -262t-310 -111v-174h-143z" />
    <glyph glyph-name="percent" unicode="%" horiz-adv-x="1495" 
d="M1210 1364v-41l-811 -1323h-114v41l811 1323h114zM914 322q0 -216 148 -216t148 215t-149 216q-147 1 -147 -215zM1352 320q0 -152 -76 -244t-214 -92t-214 93t-76 243t76 244q76 93 214 93t214 -93t76 -244zM433 1255q-149 0 -149 -215t148 -215t150 215q0 215 -149 215
zM723 1041q0 -151 -76 -243t-214 -93q-138 0 -214 92q-76 91 -76 243t76 245t214 93t214 -93t76 -244z" />
    <glyph glyph-name="ampersand" unicode="&#x26;" 
d="M164 1016q0 166 128 267t318 101t314 -87q125 -87 153 -226l-164 -45q-25 96 -104 154q-80 57 -198 57q-117 0 -195 -65t-78 -167t58 -162t173 -61h625v-147h-197v-635h-419q-475 0 -476 377q0 113 71 205t181 106v41q-68 14 -129 94t-61 193zM594 152h240v483h-252
q-305 0 -306 -250q1 -233 318 -233z" />
    <glyph glyph-name="quotesingle" unicode="'" horiz-adv-x="440" 
d="M123 1495h194l-36 -469h-121z" />
    <glyph glyph-name="parenleft" unicode="(" horiz-adv-x="663" 
d="M301 629q0 -459 277 -854l-121 -76q-313 428 -314 930q0 502 314 930l121 -76q-277 -395 -277 -854z" />
    <glyph glyph-name="parenright" unicode=")" horiz-adv-x="663" 
d="M362 629q0 459 -276 854l121 76q313 -428 313 -930t-313 -930l-121 76q276 395 276 854z" />
    <glyph glyph-name="asterisk" unicode="*" horiz-adv-x="1011" 
d="M166 1313l248 -117l32 25l-24 274h174l-33 -274l35 -25l248 117l53 -166l-268 -57l-13 -41l189 -201l-143 -103l-140 236h-39l-137 -236l-143 103l186 201l-12 41l-266 57z" />
    <glyph glyph-name="plus" unicode="+" 
d="M217 526v146h332v313h145v-313h336v-146h-336v-313h-145v313h-332z" />
    <glyph glyph-name="comma" unicode="," horiz-adv-x="544" 
d="M133 119q0 57 40 98t101 41q62 0 104 -46t42 -126t-39 -169t-135 -243l-94 56l120 209v41q-59 0 -99 41t-40 98z" />
    <glyph glyph-name="hyphen" unicode="-" horiz-adv-x="702" 
d="M113 502v182h477v-182h-477z" />
    <glyph glyph-name="period" unicode="." horiz-adv-x="544" 
d="M133 119q0 57 40 98t99 41q60 0 100 -41t40 -98t-40 -99t-100 -40q-60 0 -99 41q-40 41 -40 98z" />
    <glyph glyph-name="slash" unicode="/" horiz-adv-x="1136" 
d="M1034 1536v-61l-788 -1745h-144v61l791 1745h141z" />
    <glyph glyph-name="zero" unicode="0" horiz-adv-x="1269" 
d="M123 682q0 342 134 522t378 180t378 -180t134 -522t-134 -522t-378 -180t-378 180t-134 522zM967 682q0 248 -79 402t-257 155q-119 0 -195 -80q-76 -81 -104 -199t-29 -278q0 -160 29 -279q28 -119 104 -199t195 -79q178 1 257 155t79 402z" />
    <glyph glyph-name="one" unicode="1" horiz-adv-x="874" 
d="M442 1128h-41l-241 -178l-88 121l379 293h157v-1364h-166v1128z" />
    <glyph glyph-name="two" unicode="2" horiz-adv-x="1103" 
d="M797 1029q0 91 -69 151t-173 59q-219 0 -291 -238l-162 46q43 157 159 247t293 90t296 -99t119 -263q0 -115 -66 -220t-198 -243l-357 -373v-41h653v-145h-862v180l443 471q121 129 168 208t47 170z" />
    <glyph glyph-name="three" unicode="3" horiz-adv-x="1142" 
d="M563 125q119 0 196 73q77 72 77 192t-68 180t-215 61h-45v145h41q246 0 246 248q0 96 -65 156t-173 59q-221 0 -293 -238l-162 46q41 157 158 247t295 90t297 -100t119 -258q1 -121 -59 -199t-136 -94v-41q82 -4 159 -92t77 -219q0 -170 -124 -286q-124 -115 -324 -115
t-321 90q-122 90 -153 262l164 47q23 -129 106 -192q84 -62 203 -62z" />
    <glyph glyph-name="four" unicode="4" horiz-adv-x="1226" 
d="M907 1364v-936h260v-131h-260v-297h-155v297h-660v154l594 913h221zM272 428h480v719h-41l-439 -678v-41z" />
    <glyph glyph-name="five" unicode="5" horiz-adv-x="1173" 
d="M589 125q132 0 210 88t78 227q0 140 -81 222t-206 81q-61 0 -119 -33q-57 -34 -90 -94h-168l59 748h713v-145h-569l-45 -431h39q90 96 256 96t276 -124q111 -125 111 -322q0 -198 -122 -328q-121 -130 -329 -130t-336 93q-127 93 -153 259l163 47q20 -121 100 -187
t213 -67z" />
    <glyph glyph-name="six" unicode="6" horiz-adv-x="1167" 
d="M631 1239q-143 0 -235 -138t-105 -384h39q47 76 133 124t196 48q180 0 288 -124t108 -330t-121 -331t-299 -124q-246 0 -379 175t-133 509t144 526t364 192q158 0 254 -56t166 -175l-150 -80q-72 168 -270 168zM879 434q0 147 -78 229q-79 82 -187 82q-108 1 -197 -81
t-89 -230t89 -229q89 -82 197 -82t187 82q78 82 78 229z" />
    <glyph glyph-name="seven" unicode="7" horiz-adv-x="1124" 
d="M111 1047v317h952v-178q-455 -283 -455 -1030v-156h-168v156q0 702 418 1024v41h-598v-174h-149z" />
    <glyph glyph-name="eight" unicode="8" horiz-adv-x="1187" 
d="M594 1241q-114 1 -180 -65t-66 -176t68 -178t178 -66q110 0 178 68t68 176q0 110 -66 176t-180 65zM889 370q0 114 -80 182t-214 69q-134 0 -215 -68q-81 -69 -81 -183t81 -185t214 -71t214 72q81 70 81 184zM594 -20q-213 0 -342 106t-129 287q0 121 72 209t151 102v43
q-72 23 -123 103t-51 190q0 168 121 266t301 98t301 -98t121 -266q0 -111 -51 -191t-123 -102v-43q80 -14 152 -102t71 -209q0 -181 -129 -287t-342 -106z" />
    <glyph glyph-name="nine" unicode="9" horiz-adv-x="1167" 
d="M537 125q143 0 235 138t105 384h-39q-47 -76 -133 -124t-197 -48q-180 0 -288 124t-108 330t121 331t299 124q246 0 379 -175t133 -509t-144 -526t-363 -192q-158 0 -254 56t-166 175l149 80q72 -168 271 -168zM289 930q0 -148 78 -230q79 -82 187 -82t197 82t89 230
t-89 229q-89 82 -197 82t-187 -82q-78 -82 -78 -229z" />
    <glyph glyph-name="colon" unicode=":" horiz-adv-x="585" 
d="M154 119q0 57 40 98t99 41t99 -41t40 -98t-40 -99t-99 -40q-59 0 -99 41t-40 98zM154 918q0 57 40 98t99 41t99 -41t40 -98q0 -56 -40 -98t-99 -42t-99 42t-40 98z" />
    <glyph glyph-name="semicolon" unicode=";" horiz-adv-x="585" 
d="M160 915q0 59 41 99t98 41q57 0 98 -40q41 -39 41 -99t-41 -100t-98 -40t-98 40t-41 99zM154 119q0 57 40 98t101 41t103 -46t42 -126t-39 -169t-135 -243l-94 56l121 209v41q-59 0 -99 41t-40 98z" />
    <glyph glyph-name="less" unicode="&#x3c;" 
d="M1024 127h-41l-803 426v106l803 426h41v-149l-588 -309v-41l588 -310v-149z" />
    <glyph glyph-name="equal" unicode="=" 
d="M238 760v145h772v-145h-772zM238 293v145h772v-145h-772z" />
    <glyph glyph-name="greater" unicode="&#x3e;" 
d="M225 1085h41l803 -426v-106l-803 -426h-41v149l588 310v41l-588 309v149z" />
    <glyph glyph-name="question" unicode="?" horiz-adv-x="1064" 
d="M377 119q0 57 41 98t98 41t98 -41t41 -98t-41 -99t-98 -40q-57 0 -98 41t-41 98zM782 1034q0 98 -71 151q-72 52 -186 52q-113 0 -191 -77t-103 -183l-159 33q23 143 145 259q123 115 309 115t308 -95t122 -251q0 -174 -247 -333q-86 -48 -108 -102t-30 -128h-102
q-45 223 115 324q110 68 154 122t44 113z" />
    <glyph glyph-name="at" unicode="@" 
d="M965 158v114h-41q-27 -51 -82 -87t-121 -35q-145 0 -227 122t-82 332q0 211 90 335t233 124q53 0 105 -27t71 -80h41q-10 207 -76 311q-67 103 -217 103q-117 0 -201 -73t-138 -251t-54 -460q0 -396 100 -574t318 -178q127 0 219 51l60 -139q-111 -61 -273 -61
q-291 0 -434 220t-143 689t147 695q146 227 392 227t356 -163t108 -505v-690h-151zM772 291q180 0 191 284v31q0 315 -191 316q-201 0 -201 -316t201 -315z" />
    <glyph glyph-name="A" unicode="A" horiz-adv-x="1343" 
d="M643 1139l-242 -660h529l-246 660h-41zM82 0v51l485 1313h201l494 -1313v-51h-154l-123 332h-639l-121 -332h-143z" />
    <glyph glyph-name="B" unicode="B" horiz-adv-x="1320" 
d="M729 1214h-364v-452h352q121 0 189 66t67 176q0 210 -244 210zM195 1364h565q168 0 278 -90t111 -262q0 -117 -72 -203t-149 -92v-41q102 -6 181 -89t79 -231t-98 -252t-299 -104h-596v1364zM362 150h396q122 0 188 62t66 169t-79 171t-233 64h-338v-466z" />
    <glyph glyph-name="C" unicode="C" horiz-adv-x="1312" 
d="M711 -20q-283 0 -441 181t-157 521q0 340 157 521q158 181 441 181q201 0 336 -92t174 -282l-164 -39q-29 133 -112 199t-238 65q-416 0 -416 -553q0 -274 98 -414t318 -139q153 1 237 65t113 199l164 -39q-37 -190 -174 -282t-336 -92z" />
    <glyph glyph-name="D" unicode="D" horiz-adv-x="1411" 
d="M195 0v1364h481q622 0 622 -682t-622 -682h-481zM1122 682q0 262 -103 397t-360 135h-294v-1064h294q256 0 360 135q103 135 103 397z" />
    <glyph glyph-name="E" unicode="E" horiz-adv-x="1226" 
d="M195 0v1364h872v-150h-702v-438h610v-147h-610v-479h718v-150h-888z" />
    <glyph glyph-name="F" unicode="F" horiz-adv-x="1105" 
d="M195 0v1364h849v-150h-679v-462h589v-148h-589v-604h-170z" />
    <glyph glyph-name="G" unicode="G" horiz-adv-x="1411" 
d="M688 580v145h557v-725h-170v201h-41q-82 -219 -366 -219q-256 0 -406 186t-150 520t159 515t444 181q209 0 355 -86t187 -268l-163 -41q-57 246 -385 246q-418 0 -418 -553q0 -272 97 -414t319 -143q144 0 246 75q122 87 122 298v82h-387z" />
    <glyph glyph-name="H" unicode="H" horiz-adv-x="1413" 
d="M195 0v1364h170v-594h684v594h170v-1364h-170v618h-684v-618h-170z" />
    <glyph glyph-name="I" unicode="I" horiz-adv-x="559" 
d="M195 0v1364h170v-1364h-170z" />
    <glyph glyph-name="J" unicode="J" horiz-adv-x="1087" 
d="M475 125q266 0 266 311v928h170v-930q-1 -219 -113 -337t-315 -117q-354 0 -432 319l154 49q27 -100 95 -162q69 -61 175 -61z" />
    <glyph glyph-name="K" unicode="K" horiz-adv-x="1282" 
d="M1221 0h-181l-487 641l-188 -205v-436h-170v1364h170v-657h41l602 657h184v-41l-526 -561l555 -721v-41z" />
    <glyph glyph-name="L" unicode="L" horiz-adv-x="1134" 
d="M195 0v1364h170v-1214h677v-150h-847z" />
    <glyph glyph-name="M" unicode="M" horiz-adv-x="1626" 
d="M1432 1364v-1364h-164v1104h-31l-375 -707h-98l-373 707h-31v-1104h-165v1364h233l369 -715h30l383 715h222z" />
    <glyph glyph-name="N" unicode="N" horiz-adv-x="1458" 
d="M1100 262v1102h164v-1364h-207l-670 1102h-29v-1102h-163v1364h206l670 -1102h29z" />
    <glyph glyph-name="O" unicode="O" horiz-adv-x="1433" 
d="M113 682q0 340 158 521q159 181 446 181t445 -181t159 -521q0 -340 -159 -521q-160 -181 -446 -181t-445 181q-158 181 -158 521zM1141 682q0 553 -428 553q-154 0 -251 -79t-133 -197q-36 -117 -36 -277t36 -278t133 -196t251 -79q428 0 428 553z" />
    <glyph glyph-name="P" unicode="P" horiz-adv-x="1206" 
d="M946 930q0 137 -62 211t-216 73h-303v-569h303q156 0 217 74t61 211zM1124 930q0 -203 -118 -319t-340 -115h-301v-496h-170v1364h471q222 0 340 -116t118 -318z" />
    <glyph glyph-name="Q" unicode="Q" horiz-adv-x="1433" 
d="M1141 682q0 553 -428 553q-154 0 -251 -79t-133 -197q-36 -117 -36 -277t36 -278t133 -196t251 -79q92 0 159 25l-174 223v41h154l145 -189q144 136 144 453zM113 682q0 340 158 521q159 181 446 181t445 -181t159 -521q0 -406 -223 -584l104 -133v-41h-147l-80 103
q-117 -47 -258 -47q-287 0 -446 181q-158 181 -158 521z" />
    <glyph glyph-name="R" unicode="R" horiz-adv-x="1323" 
d="M1120 358v-120q0 -133 62 -195v-43h-160q-76 68 -76 219v131q0 113 -59 162t-199 49h-313v-561h-170v1364h516q207 0 313 -103t107 -280q0 -127 -66 -217t-172 -96v-41q101 -4 159 -79t58 -190zM721 1214h-346v-507h325q119 1 190 71t71 193q1 123 -65 183t-175 60z" />
    <glyph glyph-name="S" unicode="S" horiz-adv-x="1247" 
d="M952 348q0 102 -48 154t-148 78l-283 73q-299 80 -299 363q0 166 127 267t315 101t310 -85q121 -85 153 -228l-164 -45q-25 102 -101 158q-78 55 -196 55t-198 -60t-80 -157q0 -172 188 -221l287 -74q305 -80 305 -360q0 -183 -126 -285t-346 -102t-354 84t-175 249
l164 47q59 -236 352 -235q153 0 235 61q82 60 82 162z" />
    <glyph glyph-name="T" unicode="T" horiz-adv-x="1224" 
d="M61 1214v150h1102v-150h-467v-1214h-170v1214h-465z" />
    <glyph glyph-name="U" unicode="U" horiz-adv-x="1376" 
d="M688 131q190 0 273 92q82 92 81 283v858h170v-866q0 -250 -131 -383t-393 -133t-393 133t-131 383v866h170v-858q0 -190 82 -282t272 -93z" />
    <glyph glyph-name="V" unicode="V" horiz-adv-x="1327" 
d="M1245 1364v-41l-479 -1323h-201l-483 1323v41h158l407 -1133h41l408 1133h149z" />
    <glyph glyph-name="W" unicode="W" horiz-adv-x="1904" 
d="M1792 1364v-31l-283 -1333h-225l-311 1147h-31l-317 -1147h-224l-288 1333v31h159l242 -1143h31l315 1143h207l307 -1143h31l229 1143h158z" />
    <glyph glyph-name="X" unicode="X" horiz-adv-x="1316" 
d="M92 0v41l471 645l-471 637v41h168l379 -510h41l379 510h166v-41l-471 -637l471 -645v-41h-168l-379 532h-37l-381 -532h-168z" />
    <glyph glyph-name="Y" unicode="Y" horiz-adv-x="1251" 
d="M1194 1364v-41l-485 -799v-524h-170v526l-482 797v41h160l391 -651h37l389 651h160z" />
    <glyph glyph-name="Z" unicode="Z" horiz-adv-x="1239" 
d="M334 152h792v-152h-1013v143l776 1031v40h-739v150h956v-150l-772 -1024v-38z" />
    <glyph glyph-name="bracketleft" unicode="[" horiz-adv-x="653" 
d="M133 1536h428v-135h-268v-1540h268v-135h-428v1810z" />
    <glyph glyph-name="backslash" unicode="\" horiz-adv-x="1136" 
d="M1034 -270h-143l-789 1745v61h142l790 -1745v-61z" />
    <glyph glyph-name="bracketright" unicode="]" horiz-adv-x="653" 
d="M92 1536h428v-1810h-428v135h268v1540h-268v135z" />
    <glyph glyph-name="asciicircum" unicode="^" horiz-adv-x="999" 
d="M887 862h-146l-221 338h-41l-221 -338h-145v41l305 461h164l305 -461v-41z" />
    <glyph glyph-name="underscore" unicode="_" horiz-adv-x="1157" 
d="M113 -147v147h931v-147h-931z" />
    <glyph glyph-name="grave" unicode="`" 
d="M784 1194h-114l-215 293v41h204l125 -293v-41z" />
    <glyph glyph-name="a" unicode="a" horiz-adv-x="1118" 
d="M770 174q-60 -194 -318 -194q-140 0 -228 85q-89 85 -89 232q0 315 471 344l195 12v29q1 119 -61 176t-169 57q-169 1 -247 -161l-150 63q90 240 397 240q385 0 385 -371v-686h-145v174h-41zM801 434v88l-178 -10q-324 -18 -324 -215q0 -180 203 -180q139 0 219 93
t80 224z" />
    <glyph glyph-name="b" unicode="b" horiz-adv-x="1230" 
d="M649 123q147 0 219 105q72 106 72 290t-72 290t-219 105q-147 0 -219 -105q-72 -106 -72 -290t72 -290t219 -105zM1114 518q0 -258 -112 -398t-302 -140q-233 0 -311 196h-41v-176h-164v1495h164v-635h41q78 197 311 197q190 -1 302 -141t112 -398z" />
    <glyph glyph-name="c" unicode="c" horiz-adv-x="1071" 
d="M578 1057q330 0 401 -291l-160 -43q-51 190 -241 190q-148 0 -220 -105q-72 -106 -72 -290t72 -290q72 -105 220 -105q190 0 241 190l160 -43q-72 -291 -401 -290q-201 0 -333 131t-132 407t132 408t333 131z" />
    <glyph glyph-name="d" unicode="d" horiz-adv-x="1230" 
d="M582 123q147 0 219 105q71 106 71 290t-71 290q-72 105 -219 105q-148 0 -220 -105q-72 -106 -72 -290t72 -290q73 -105 220 -105zM117 518q0 258 111 398q112 140 302 141q233 0 312 -197h41v635h164v-1495h-164v176h-41q-78 -197 -312 -196q-190 0 -302 140
q-111 140 -111 398z" />
    <glyph glyph-name="e" unicode="e" horiz-adv-x="1118" 
d="M565 915q-248 0 -278 -313h544q0 313 -266 313zM561 -20q-193 0 -321 131t-127 406q0 275 130 407q129 132 325 133q196 0 317 -119t121 -379v-88h-723q10 -164 81 -257t201 -93q185 -1 273 151l143 -73q-109 -219 -420 -219z" />
    <glyph glyph-name="f" unicode="f" horiz-adv-x="819" 
d="M84 1036h164v74q0 406 332 406q137 0 239 -68l-67 -127q-70 51 -163 51t-135 -55t-42 -207v-74h354v-139h-354v-897h-164v897h-164v139z" />
    <glyph glyph-name="g" unicode="g" horiz-adv-x="1234" 
d="M858 719q0 98 -70 151q-70 54 -186 54t-186 -54q-68 -54 -68 -151q0 -99 69 -151t185 -52t186 52t70 151zM162 243q0 73 49 119t123 50v41q-70 33 -112 103t-42 153q0 145 102 246t318 102q139 0 229 -47h41q0 102 60 158t143 57h105v-156h-131q-59 0 -89 -35t-30 -90
q34 -27 64 -88t30 -121q0 -170 -106 -261t-277 -91h-168q-156 0 -156 -111q0 -98 156 -98h283q414 0 413 -276q0 -150 -140 -239t-404 -89q-530 0 -531 266q0 94 73 150t169 61v41q-76 4 -124 43t-48 112zM620 -303q204 0 296 52t92 136q0 141 -254 142h-219
q-285 0 -285 -160q0 -82 83 -126t287 -44z" />
    <glyph glyph-name="h" unicode="h" horiz-adv-x="1191" 
d="M184 0v1495h164v-621h41q27 80 103 132t198 51q338 0 338 -404v-653h-166v614q0 150 -54 225t-178 75t-203 -91q-79 -90 -79 -248v-575h-164z" />
    <glyph glyph-name="i" unicode="i" horiz-adv-x="532" 
d="M143 1391q0 53 36 89t87 36t87 -36t36 -89t-36 -89t-87 -36t-87 36t-36 89zM348 0h-164v1036h164v-1036z" />
    <glyph glyph-name="j" unicode="j" horiz-adv-x="532" 
d="M143 1391q0 53 36 89t87 36t87 -36t36 -89t-36 -89t-87 -36t-87 36t-36 89zM184 -39v1075h164v-1073q0 -185 -92 -289t-246 -104q-87 -1 -153 24l39 136q50 -16 122 -16t119 67q47 68 47 180z" />
    <glyph glyph-name="k" unicode="k" horiz-adv-x="1105" 
d="M184 0v1495h164v-911h41l479 452h164v-41l-366 -354l368 -600v-41h-168l-321 543l-197 -181v-362h-164z" />
    <glyph glyph-name="l" unicode="l" horiz-adv-x="532" 
d="M348 0h-164v1495h164v-1495z" />
    <glyph glyph-name="m" unicode="m" horiz-adv-x="1746" 
d="M184 0v1036h164v-162h41q23 80 91 132q69 51 179 51q205 0 275 -183h41q20 80 98 132t203 51q307 0 307 -404v-653h-166v614q0 150 -48 225q-47 75 -151 75t-172 -78q-68 -76 -79 -213v-623h-166v643q0 270 -203 270q-110 0 -180 -91t-70 -247v-575h-164z" />
    <glyph glyph-name="n" unicode="n" horiz-adv-x="1191" 
d="M184 0v1036h164v-162h41q27 80 103 132t198 51q338 0 338 -404v-653h-166v614q0 150 -54 225t-178 75t-203 -91q-79 -90 -79 -248v-575h-164z" />
    <glyph glyph-name="o" unicode="o" horiz-adv-x="1155" 
d="M578 1057q200 0 332 -131q132 -132 132 -408t-132 -407t-332 -131t-333 131q-132 131 -132 407t132 408t333 131zM578 123q147 0 219 105q71 106 71 290t-71 290q-72 105 -219 105q-148 0 -220 -105q-72 -106 -72 -290t72 -290q73 -105 220 -105z" />
    <glyph glyph-name="p" unicode="p" horiz-adv-x="1230" 
d="M649 913q-147 0 -219 -105q-72 -106 -72 -290t72 -290t219 -105q147 0 219 105q72 106 72 290t-72 290t-219 105zM1114 518q0 -258 -112 -398t-302 -140q-233 0 -311 196h-41v-586h-164v1446h164v-176h41q78 197 311 197q190 -1 302 -141t112 -398z" />
    <glyph glyph-name="q" unicode="q" horiz-adv-x="1230" 
d="M582 913q-148 0 -220 -105q-72 -106 -72 -290t72 -290q72 -105 220 -105t219 105q71 106 71 290t-71 290q-72 105 -219 105zM117 518q0 258 111 398q112 140 302 141q233 0 312 -197h41v176h164v-1446h-164v586h-41q-78 -197 -312 -196q-190 0 -302 140
q-111 140 -111 398z" />
    <glyph glyph-name="r" unicode="r" horiz-adv-x="915" 
d="M348 0h-164v1036h164v-162h41q21 76 81 130t155 53q207 0 268 -193l-156 -71q-43 115 -164 114q-98 0 -161 -102t-64 -270v-535z" />
    <glyph glyph-name="s" unicode="s" horiz-adv-x="1056" 
d="M540 115q112 0 179 48q66 48 65 128q0 109 -176 141l-180 35q-147 29 -215 97t-68 196q0 126 110 212t284 85q301 0 383 -234l-148 -63q-18 68 -80 114t-162 48q-100 0 -163 -44t-64 -120q0 -109 174 -142l180 -34q139 -28 212 -92t73 -198t-110 -223t-290 -89
q-182 0 -293 70t-138 194l151 59q24 -84 94 -136t182 -52z" />
    <glyph glyph-name="t" unicode="t" horiz-adv-x="851" 
d="M268 1434h164v-398h352v-135h-352v-588q0 -188 152 -188q82 0 159 49l66 -125q-100 -68 -246 -67q-295 0 -295 329v590h-202v135h202v398z" />
    <glyph glyph-name="u" unicode="u" horiz-adv-x="1171" 
d="M987 1036v-1036h-164v162h-41q-24 -80 -98 -131t-192 -51q-328 0 -328 403v653h166v-614q0 -150 52 -224t170 -75q118 0 194 90t77 248v575h164z" />
    <glyph glyph-name="v" unicode="v" horiz-adv-x="1087" 
d="M1016 1036v-41l-383 -995h-178l-383 995v41h155l299 -817h41l297 817h152z" />
    <glyph glyph-name="w" unicode="w" horiz-adv-x="1570" 
d="M1489 1036v-41l-279 -995h-182l-219 786h-41l-221 -786h-185l-280 995v41h143l213 -796h41l223 796h168l234 -796h41l201 796h143z" />
    <glyph glyph-name="x" unicode="x" horiz-adv-x="1087" 
d="M92 0v41l357 494l-328 460v41h153l252 -362h41l246 362h150v-41l-322 -458l354 -496v-41h-157l-273 397h-41l-276 -397h-156z" />
    <glyph glyph-name="y" unicode="y" horiz-adv-x="1087" 
d="M72 1036h155l299 -817h41l297 817h152v-41l-412 -1069q-137 -356 -416 -356q-147 0 -233 59l70 135q71 -51 161 -51t161 76t116 191l-391 1015v41z" />
    <glyph glyph-name="z" unicode="z" horiz-adv-x="1019" 
d="M338 141h559v-141h-774v182l557 662v51h-541v141h748v-190l-549 -653v-52z" />
    <glyph glyph-name="braceleft" unicode="{" horiz-adv-x="718" 
d="M420 401q0 -74 -35 -215q-35 -140 -35 -202t32 -103t96 -41t126 17l29 -129q-74 -20 -148 -21q-129 0 -205 72t-75 188q0 78 37 232t37 202q0 92 -42 123t-135 31v143q92 0 135 31q42 31 42 123q0 49 -37 203t-37 231q0 117 76 189t204 71q74 0 148 -20l-29 -129
q-61 16 -126 16q-64 0 -96 -41t-32 -102q0 -60 35 -202t35 -216q0 -166 -121 -205v-41q121 -39 121 -205z" />
    <glyph glyph-name="bar" unicode="|" horiz-adv-x="557" 
d="M205 -270v1806h147v-1806h-147z" />
    <glyph glyph-name="braceright" unicode="}" horiz-adv-x="718" 
d="M299 848q0 74 35 215t35 203t-32 102t-96 41q-64 0 -126 -16l-29 129q74 20 147 20q129 0 205 -72t76 -188q0 -78 -37 -232t-37 -202q0 -92 42 -123t134 -31v-143q-92 0 -134 -31t-42 -123q0 -49 37 -203t37 -231q0 -117 -76 -189t-205 -71q-74 0 -147 21l29 129
q170 -45 222 24q32 41 32 103t-35 202q-35 141 -35 215q0 166 121 205v41q-121 39 -121 205z" />
    <glyph glyph-name="asciitilde" unicode="~" 
d="M834 473q-78 0 -222 59q-144 60 -183 60q-37 0 -57 -30t-36 -97l-137 20q16 113 71 180q54 67 138 67t229 -60t183 -60t58 31q19 31 35 100l136 -20q-35 -250 -215 -250z" />
    <glyph glyph-name="uni00A0" unicode="&#xa0;" horiz-adv-x="512" 
 />
    <glyph glyph-name="exclamdown" unicode="&#xa1;" horiz-adv-x="688" 
d="M483 918q0 -56 -41 -98t-98 -42t-98 41t-41 99t41 98q41 41 98 41t98 -41t41 -98zM434 -328h-178v553l35 336h100l43 -336v-553z" />
    <glyph glyph-name="cent" unicode="&#xa2;" horiz-adv-x="1091" 
d="M287 538q0 -323 198 -382v766q-198 -61 -198 -384zM485 -172v178q-168 29 -270 159t-102 373q0 244 103 374t269 157v180h144v-174q285 -25 350 -289l-160 -43q-43 162 -190 187v-783q147 25 190 187l160 -43q-66 -264 -350 -289v-174h-144z" />
    <glyph glyph-name="sterling" unicode="&#xa3;" horiz-adv-x="1206" 
d="M123 616v138h147q-31 127 -30 202q2 190 107 310t335 118q162 0 276 -92t136 -245l-162 -46q-20 123 -90 181t-166 57q-262 0 -262 -285q0 -70 32 -200h390v-138h-357q27 -124 27 -194t-31 -134t-86 -93v-41h653v-154h-919v184q221 78 221 252q0 53 -35 180h-186z" />
    <glyph glyph-name="currency" unicode="&#xa4;" 
d="M624 422q101 0 166 66q64 66 64 177q0 109 -64 177t-166 68q-101 0 -165 -68q-63 -68 -63 -176t63 -176q64 -68 165 -68zM625 297q-106 0 -191 47l-125 -125l-86 86l115 115q-82 98 -82 240t80 243l-113 115l86 86l119 -121q90 51 200 51t199 -55l125 125l86 -86
l-120 -121q74 -100 74 -236t-77 -233l123 -123l-86 -86l-131 129q-90 -51 -196 -51z" />
    <glyph glyph-name="yen" unicode="&#xa5;" horiz-adv-x="1177" 
d="M770 676h203v-135h-301v-125h301v-135h-301v-281h-170v281h-301v135h301v125h-301v135h205v41l-345 606v41h160l350 -631h37l348 631h160v-41l-346 -606v-41z" />
    <glyph glyph-name="brokenbar" unicode="&#xa6;" horiz-adv-x="557" 
d="M205 840v696h147v-696h-147zM205 -270v696h147v-696h-147z" />
    <glyph glyph-name="section" unicode="&#xa7;" horiz-adv-x="1204" 
d="M299 709q0 -121 158 -187l248 -104q92 -39 137 -66q63 57 63 135q0 125 -157 191l-248 104q-104 43 -135 62q-66 -53 -66 -135zM1061 507q0 -128 -127 -233q53 -66 53 -168q-1 -139 -111 -217q-110 -77 -274 -77t-271 72q-105 73 -136 196l159 43q20 -82 84 -128t163 -46
q101 0 165 39t64 107t-37 102q-37 33 -136 73l-249 105q-127 53 -196 120t-69 193t127 232q-53 66 -53 170q0 139 111 217q112 77 276 77t269 -72t137 -196l-160 -43q-20 82 -84 128t-163 46q-101 0 -165 -39t-64 -107q0 -67 38 -101q37 -34 135 -74l250 -105
q127 -53 195 -119t69 -195z" />
    <glyph glyph-name="dieresis" unicode="&#xa8;" 
d="M711 1356q0 51 34 86q35 35 86 35t87 -35t34 -86q0 -51 -34 -86t-86 -35t-87 35q-34 35 -34 86zM297 1356q0 51 35 86t86 35t86 -35t35 -86t-35 -86t-86 -35t-86 35t-35 86z" />
    <glyph glyph-name="copyright" unicode="&#xa9;" 
d="M625 -25q-254 0 -394 193q-139 193 -139 551t139 551q139 192 393 192t394 -192q139 -192 139 -551q0 -358 -139 -551t-393 -193zM625 86q201 0 306 161t105 472t-105 472t-306 161t-307 -161t-105 -472q-1 -311 105 -472t307 -161zM502 719q0 -295 129 -295q47 0 69 47
t23 113l129 -21q-4 -113 -59 -183t-162 -71q-258 0 -258 410t258 409q106 0 162 -70q55 -71 59 -184l-129 -20q0 66 -23 113t-69 47q-129 0 -129 -295z" />
    <glyph glyph-name="ordfeminine" unicode="&#xaa;" horiz-adv-x="962" 
d="M510 1384q305 0 305 -294v-545h-123v119h-41q-51 -135 -221 -136q-125 0 -197 68t-71 184q0 252 375 275l147 10v22q0 176 -174 177q-129 0 -188 -121l-129 51q74 190 317 190zM684 889v63l-133 -8q-250 -16 -250 -164q0 -135 154 -135q109 0 169 73t60 171z" />
    <glyph glyph-name="guillemotleft" unicode="&#xab;" horiz-adv-x="1122" 
d="M969 102h-138l-270 406l270 405h138v-41l-219 -364l219 -365v-41zM561 102h-137l-270 406l270 405h137v-41l-219 -364l219 -365v-41z" />
    <glyph glyph-name="logicalnot" unicode="&#xac;" 
d="M217 526v146h813v-459h-145v313h-668z" />
    <glyph glyph-name="uni00AD" unicode="&#xad;" horiz-adv-x="702" 
d="M113 502v182h477v-182h-477z" />
    <glyph glyph-name="registered" unicode="&#xae;" horiz-adv-x="1017" 
d="M668 905q0 -27 22 -35v-41h-76q-29 27 -28 72v39q0 35 -16 49t-62 15h-66v-175h-80v439h156q76 0 116 -34t40 -80t-22 -70t-48 -27v-41q39 -2 51 -18t13 -56v-37zM518 1198h-76v-127h70q80 0 80 72q0 55 -74 55zM844 1044q0 144 -98 246t-238 102q-142 0 -238 -100
q-96 -102 -96 -248t96 -245q96 -101 238 -101t238 100q98 100 98 246zM926 1044q0 -176 -121 -296t-296 -119q-175 0 -296 120q-121 119 -121 295t121 297t297 121t296 -121t120 -297z" />
    <glyph glyph-name="macron" unicode="&#xaf;" 
d="M352 1266v137h545v-137h-545z" />
    <glyph glyph-name="degree" unicode="&#xb0;" horiz-adv-x="860" 
d="M244 1067q0 -84 53 -141q53 -58 133 -58t133 58t53 141q0 84 -53 141q-53 58 -133 58t-133 -58t-53 -141zM113 1067q0 135 91 226t226 91t226 -91q92 -91 92 -226t-92 -226t-226 -91q-135 0 -226 91t-91 226z" />
    <glyph glyph-name="plusminus" unicode="&#xb1;" 
d="M217 0v145h813v-145h-813zM217 588v145h332v293h145v-293h336v-145h-336v-293h-145v293h-332z" />
    <glyph glyph-name="twosuperior" unicode="&#xb2;" horiz-adv-x="798" 
d="M362 711h289v-127h-497v114l268 293q84 93 84 153t-28 90t-77 30q-98 0 -129 -129l-129 41q14 78 80 140t181 62q116 0 180 -60t63 -153q0 -117 -121 -241l-164 -172v-41z" />
    <glyph glyph-name="threesuperior" unicode="&#xb3;" horiz-adv-x="798" 
d="M397 567q-129 1 -195 61t-81 142l135 41q31 -129 141 -129q53 0 87 36t34 93q0 119 -137 119h-47v106h41q67 0 97 34t30 85t-29 80t-76 29q-96 0 -127 -129l-129 41q14 80 79 141q66 61 182 61t180 -61t63 -154q0 -55 -30 -99t-78 -54v-41q53 -4 92 -50t39 -132t-71 -153
t-200 -67z" />
    <glyph glyph-name="acute" unicode="&#xb4;" 
d="M465 1194v41l125 293h205v-41l-215 -293h-115z" />
    <glyph glyph-name="mu" unicode="&#xb5;" horiz-adv-x="1191" 
d="M184 -410v1446h166v-614q0 -150 52 -224t170 -75q118 0 195 90t77 248v575h164v-1036h-164v162h-41q-27 -78 -102 -130t-178 -52t-175 32v-422h-164z" />
    <glyph glyph-name="paragraph" unicode="&#xb6;" horiz-adv-x="1288" 
d="M913 1364h170v-1364h-170v1364zM82 930q0 202 118 318t341 116h211v-1364h-170v496h-41q-223 0 -341 116t-118 318z" />
    <glyph glyph-name="periodcentered" unicode="&#xb7;" horiz-adv-x="606" 
d="M164 584q0 59 41 99t98 40t98 -40t41 -99q0 -60 -41 -100t-98 -40t-98 40t-41 100z" />
    <glyph glyph-name="cedilla" unicode="&#xb8;" 
d="M852 -255q0 -75 -61 -122t-182 -47t-212 66l56 90q82 -51 178 -51t96 69q0 63 -92 64q-61 0 -107 -45l-82 59l134 211h108l-102 -160q40 19 106 19t113 -39t47 -114z" />
    <glyph glyph-name="onesuperior" unicode="&#xb9;" horiz-adv-x="798" 
d="M530 584h-141v565h-41l-102 -86l-80 92l235 209h129v-780z" />
    <glyph glyph-name="ordmasculine" unicode="&#xba;" horiz-adv-x="962" 
d="M111 958q0 218 105 322t265 104t265 -103q106 -103 106 -323t-106 -322q-106 -104 -265 -104q-160 0 -265 104t-105 322zM256 958q0 -305 224 -305t227 305q1 142 -55 224t-171 82q-225 -1 -225 -306z" />
    <glyph glyph-name="guillemotright" unicode="&#xbb;" horiz-adv-x="1122" 
d="M154 913h137l270 -405l-270 -406h-137v41l219 365l-219 364v41zM561 913h137l271 -405l-271 -406h-137v41l219 365l-219 364v41z" />
    <glyph glyph-name="onequarter" unicode="&#xbc;" horiz-adv-x="1761" 
d="M1393 643h-41l-158 -336v-41h199v377zM1520 780v-514h100v-114h-100v-152h-127v152h-355v120l260 508h222zM500 584h-142v565h-41l-102 -86l-80 92l236 209h129v-780zM360 0v41l924 1323h131v-41l-923 -1323h-132z" />
    <glyph glyph-name="onehalf" unicode="&#xbd;" horiz-adv-x="1761" 
d="M500 584h-142v565h-41l-102 -86l-80 92l236 209h129v-780zM1337 127h289v-127h-498v115l269 293q84 94 84 153t-28 89t-77 30q-98 0 -129 -129l-129 41q14 78 80 140t180 62t180 -60q65 -60 64 -152q0 -117 -121 -242l-164 -172v-41zM360 0v41l924 1323h131v-41
l-923 -1323h-132z" />
    <glyph glyph-name="threequarters" unicode="&#xbe;" horiz-adv-x="1761" 
d="M1393 643h-41l-158 -336v-41h199v377zM1520 780v-514h100v-114h-100v-152h-127v152h-355v120l260 508h222zM360 0v41l924 1323h131v-41l-923 -1323h-132zM657 787q-1 -86 -71 -153t-199 -67q-129 1 -195 61t-81 142l135 41q31 -129 141 -129q53 0 87 36t34 93
q0 119 -137 119h-47v106h41q67 0 97 34t30 85t-29 80t-76 29q-96 0 -127 -129l-129 41q14 80 79 141q66 61 182 61t179 -61t64 -154q0 -55 -30 -99t-79 -54v-41q53 -4 92 -50t39 -132z" />
    <glyph glyph-name="questiondown" unicode="&#xbf;" horiz-adv-x="1064" 
d="M688 918q0 -56 -41 -98t-98 -42t-98 41t-41 99t41 98q41 41 98 41t98 -41t41 -98zM539 -348q-186 0 -309 95q-122 95 -121 251q0 174 247 334q87 49 108 102t30 127h102q45 -223 -115 -323q-109 -68 -153 -122t-45 -114q-1 -98 71 -150t186 -52t192 76q78 77 102 183
l159 -32q-23 -143 -145 -259t-309 -116z" />
    <glyph glyph-name="Agrave" unicode="&#xc0;" horiz-adv-x="1343" 
d="M748 1440h-115l-215 293v41h205l125 -293v-41zM643 1139l-242 -660h529l-246 660h-41zM82 0v51l485 1313h201l494 -1313v-51h-154l-123 332h-639l-121 -332h-143z" />
    <glyph glyph-name="Aacute" unicode="&#xc1;" horiz-adv-x="1343" 
d="M588 1440v41l125 293h205v-41l-216 -293h-114zM643 1139l-242 -660h529l-246 660h-41zM82 0v51l485 1313h201l494 -1313v-51h-154l-123 332h-639l-121 -332h-143z" />
    <glyph glyph-name="Acircumflex" unicode="&#xc2;" horiz-adv-x="1343" 
d="M971 1440h-119l-160 174h-41l-159 -174h-119v41l213 293h172l213 -293v-41zM643 1139l-242 -660h529l-246 660h-41zM82 0v51l485 1313h201l494 -1313v-51h-154l-123 332h-639l-121 -332h-143z" />
    <glyph glyph-name="Atilde" unicode="&#xc3;" horiz-adv-x="1343" 
d="M809 1460q-66 0 -152 64t-118 63q-51 0 -74 -117l-127 21q35 236 194 235q66 0 152 -63t119 -64q51 0 74 117l127 -20q-35 -236 -195 -236zM643 1139l-242 -660h529l-246 660h-41zM82 0v51l485 1313h201l494 -1313v-51h-154l-123 332h-639l-121 -332h-143z" />
    <glyph glyph-name="Adieresis" unicode="&#xc4;" horiz-adv-x="1343" 
d="M758 1602q0 51 35 86q35 34 86 34t86 -34t35 -86q0 -51 -36 -86q-34 -35 -85 -35t-86 35t-35 86zM344 1602q0 51 35 86q35 34 86 34t86 -34t35 -86q0 -51 -35 -86t-86 -35t-86 35t-35 86zM643 1139l-242 -660h529l-246 660h-41zM82 0v51l485 1313h201l494 -1313v-51h-154
l-123 332h-639l-121 -332h-143z" />
    <glyph glyph-name="Aring" unicode="&#xc5;" horiz-adv-x="1343" 
d="M555 1490q0 -52 31 -87t76 -39h18q47 4 78 39q30 35 30 87t-33 88q-34 36 -83 36t-83 -36t-34 -88zM643 1139l-242 -660h529l-246 660h-41zM444 1489q0 95 65 157t163 62t163 -62t64 -157q0 -127 -108 -189l471 -1249v-51h-154l-123 332h-639l-121 -332h-143v51l463 1254
q-101 59 -101 184z" />
    <glyph glyph-name="AE" unicode="&#xc6;" horiz-adv-x="1994" 
d="M963 479v735h-291l-271 -735h562zM963 0v332h-617l-121 -332h-143v51l485 1313h1268v-150h-702v-438h610v-147h-610v-479h718v-150h-888z" />
    <glyph glyph-name="Ccedilla" unicode="&#xc7;" horiz-adv-x="1312" 
d="M711 -20q-27 0 -39 2l-64 -103q40 19 106 19t113 -39t47 -114t-61 -122t-182 -47t-211 66l55 90q82 -51 178 -51t97 69q0 63 -93 64q-61 0 -106 -45l-82 59l102 164q-219 41 -339 217q-120 177 -120 495t158 499t441 181q201 0 336 -92t174 -282l-164 -39
q-29 133 -112 199t-238 65q-416 0 -416 -553q0 -274 98 -414t318 -139q153 1 237 65t113 199l164 -39q-37 -190 -174 -282t-336 -92z" />
    <glyph glyph-name="Egrave" unicode="&#xc8;" horiz-adv-x="1226" 
d="M723 1440h-115l-215 293v41h205l125 -293v-41zM195 0v1364h872v-150h-702v-438h610v-147h-610v-479h718v-150h-888z" />
    <glyph glyph-name="Eacute" unicode="&#xc9;" horiz-adv-x="1226" 
d="M557 1440v41l125 293h205v-41l-215 -293h-115zM195 0v1364h872v-150h-702v-438h610v-147h-610v-479h718v-150h-888z" />
    <glyph glyph-name="Ecircumflex" unicode="&#xca;" horiz-adv-x="1226" 
d="M940 1440h-119l-159 174h-41l-160 -174h-119v41l213 293h172l213 -293v-41zM195 0v1364h872v-150h-702v-438h610v-147h-610v-479h718v-150h-888z" />
    <glyph glyph-name="Edieresis" unicode="&#xcb;" horiz-adv-x="1226" 
d="M725 1602q0 51 35 86q35 34 86 34t86 -34t35 -86q0 -51 -35 -86t-86 -35t-86 35t-35 86zM311 1602q0 51 35 86q35 34 86 34t86 -34t35 -86q0 -51 -35 -86t-86 -35t-86 35t-35 86zM195 0v1364h872v-150h-702v-438h610v-147h-610v-479h718v-150h-888z" />
    <glyph glyph-name="Igrave" unicode="&#xcc;" horiz-adv-x="559" 
d="M344 1440h-115l-215 293v41h205l125 -293v-41zM195 0v1364h170v-1364h-170z" />
    <glyph glyph-name="Iacute" unicode="&#xcd;" horiz-adv-x="559" 
d="M215 1440v41l125 293h205v-41l-215 -293h-115zM195 0v1364h170v-1364h-170z" />
    <glyph glyph-name="Icircumflex" unicode="&#xce;" horiz-adv-x="559" 
d="M580 1440h-119l-160 174h-41l-160 -174h-118v41l213 293h172l213 -293v-41zM195 0v1364h170v-1364h-170z" />
    <glyph glyph-name="Idieresis" unicode="&#xcf;" horiz-adv-x="559" 
d="M367 1602q0 51 34 86q35 34 86 34t86 -34t35 -86q0 -51 -35 -86t-86 -35t-86 35q-34 35 -34 86zM-47 1602q0 51 35 86q35 34 86 34t86 -34t35 -86q0 -51 -35 -86t-86 -35t-86 35t-35 86zM195 0v1364h170v-1364h-170z" />
    <glyph glyph-name="Eth" unicode="&#xd0;" horiz-adv-x="1433" 
d="M1145 682q1 262 -103 397t-360 135h-295v-462h264v-134h-264v-468h295q256 0 360 135t103 397zM92 618v134h125v612h481q623 0 623 -682t-623 -682h-481v618h-125z" />
    <glyph glyph-name="Ntilde" unicode="&#xd1;" horiz-adv-x="1458" 
d="M887 1460q-66 0 -152 64t-119 63q-51 0 -73 -117l-127 21q35 236 194 235q66 0 152 -63t119 -64q51 0 73 117l127 -20q-34 -236 -194 -236zM1100 262v1102h164v-1364h-207l-670 1102h-29v-1102h-163v1364h206l670 -1102h29z" />
    <glyph glyph-name="Ograve" unicode="&#xd2;" horiz-adv-x="1433" 
d="M778 1440h-114l-215 293v41h204l125 -293v-41zM113 682q0 340 158 521q159 181 446 181t445 -181t159 -521q0 -340 -159 -521q-160 -181 -446 -181t-445 181q-158 181 -158 521zM1141 682q0 553 -428 553q-154 0 -251 -79t-133 -197q-36 -117 -36 -277t36 -278t133 -196
t251 -79q428 0 428 553z" />
    <glyph glyph-name="Oacute" unicode="&#xd3;" horiz-adv-x="1433" 
d="M653 1440v41l125 293h205v-41l-215 -293h-115zM113 682q0 340 158 521q159 181 446 181t445 -181t159 -521q0 -340 -159 -521q-160 -181 -446 -181t-445 181q-158 181 -158 521zM1141 682q0 553 -428 553q-154 0 -251 -79t-133 -197q-36 -117 -36 -277t36 -278t133 -196
t251 -79q428 0 428 553z" />
    <glyph glyph-name="Ocircumflex" unicode="&#xd4;" horiz-adv-x="1433" 
d="M1016 1440h-119l-160 174h-41l-159 -174h-119v41l213 293h172l213 -293v-41zM113 682q0 340 158 521q159 181 446 181t445 -181t159 -521q0 -340 -159 -521q-160 -181 -446 -181t-445 181q-158 181 -158 521zM1141 682q0 553 -428 553q-154 0 -251 -79t-133 -197
q-36 -117 -36 -277t36 -278t133 -196t251 -79q428 0 428 553z" />
    <glyph glyph-name="Otilde" unicode="&#xd5;" horiz-adv-x="1433" 
d="M854 1460q-66 0 -152 64t-118 63q-51 0 -74 -117l-127 21q35 236 195 235q66 0 152 -63t118 -64q51 0 74 117l127 -20q-35 -236 -195 -236zM113 682q0 340 158 521q159 181 446 181t445 -181t159 -521q0 -340 -159 -521q-160 -181 -446 -181t-445 181q-158 181 -158 521z
M1141 682q0 553 -428 553q-154 0 -251 -79t-133 -197q-36 -117 -36 -277t36 -278t133 -196t251 -79q428 0 428 553z" />
    <glyph glyph-name="Odieresis" unicode="&#xd6;" horiz-adv-x="1433" 
d="M803 1602q0 51 35 86q35 34 86 34t86 -34q34 -34 34 -86q0 -51 -34 -86t-86 -35q-51 0 -86 35t-35 86zM389 1602q0 51 35 86q35 34 86 34t86 -34t35 -86q0 -51 -35 -86t-86 -35t-86 35t-35 86zM113 682q0 340 158 521q159 181 446 181t445 -181t159 -521
q0 -340 -159 -521q-160 -181 -446 -181t-445 181q-158 181 -158 521zM1141 682q0 553 -428 553q-154 0 -251 -79t-133 -197q-36 -117 -36 -277t36 -278t133 -196t251 -79q428 0 428 553z" />
    <glyph glyph-name="multiply" unicode="&#xd7;" 
d="M356 236l-96 96l266 266l-268 268l96 97l269 -269l270 271l96 -97l-270 -270l268 -268l-96 -97l-268 269z" />
    <glyph glyph-name="Oslash" unicode="&#xd8;" horiz-adv-x="1445" 
d="M291 682q0 -215 65 -352l625 833q-98 80 -262 80q-428 0 -428 -561zM1155 682q0 227 -78 369l-628 -842q104 -88 270 -88q436 0 436 561zM119 696q0 326 159 507t445 181q209 0 350 -98l119 160h151v-41l-161 -217q145 -180 145 -513t-159 -514t-445 -181
q-221 0 -365 106l-110 -147h-154v41l158 210q-133 180 -133 506z" />
    <glyph glyph-name="Ugrave" unicode="&#xd9;" horiz-adv-x="1376" 
d="M770 1440h-115l-215 293v41h205l125 -293v-41zM688 131q190 0 273 92q82 92 81 283v858h170v-866q0 -250 -131 -383t-393 -133t-393 133t-131 383v866h170v-858q0 -190 82 -282t272 -93z" />
    <glyph glyph-name="Uacute" unicode="&#xda;" horiz-adv-x="1376" 
d="M604 1440v41l125 293h205v-41l-215 -293h-115zM688 131q190 0 273 92q82 92 81 283v858h170v-866q0 -250 -131 -383t-393 -133t-393 133t-131 383v866h170v-858q0 -190 82 -282t272 -93z" />
    <glyph glyph-name="Ucircumflex" unicode="&#xdb;" horiz-adv-x="1376" 
d="M987 1440h-119l-159 174h-41l-160 -174h-119v41l213 293h172l213 -293v-41zM688 131q190 0 273 92q82 92 81 283v858h170v-866q0 -250 -131 -383t-393 -133t-393 133t-131 383v866h170v-858q0 -190 82 -282t272 -93z" />
    <glyph glyph-name="Udieresis" unicode="&#xdc;" horiz-adv-x="1376" 
d="M774 1602q0 51 35 86q35 34 86 34t86 -34t35 -86q0 -51 -35 -86t-86 -35t-86 35t-35 86zM360 1602q0 51 35 86q35 34 86 34t86 -34t35 -86q0 -51 -35 -86t-86 -35t-86 35t-35 86zM688 131q190 0 273 92q82 92 81 283v858h170v-866q0 -250 -131 -383t-393 -133t-393 133
t-131 383v866h170v-858q0 -190 82 -282t272 -93z" />
    <glyph glyph-name="Yacute" unicode="&#xdd;" horiz-adv-x="1251" 
d="M543 1440v41l125 293h204v-41l-215 -293h-114zM1194 1364v-41l-485 -799v-524h-170v526l-482 797v41h160l391 -651h37l389 651h160z" />
    <glyph glyph-name="Thorn" unicode="&#xde;" horiz-adv-x="1206" 
d="M668 971h-303v-570h303q156 0 217 74t61 211t-62 211t-216 74zM365 1364v-244h301q223 0 341 -116q117 -116 117 -318t-118 -318t-340 -116h-301v-252h-170v1364h170z" />
    <glyph glyph-name="germandbls" unicode="&#xdf;" horiz-adv-x="1273" 
d="M815 770q149 0 261 -97t112 -279t-120 -295q-120 -114 -314 -113q-117 0 -207 34l45 134q92 -35 162 -35q128 0 202 77q74 76 74 208t-98 206t-299 74v176q143 29 200 106q56 77 56 205q1 78 -57 143q-58 64 -176 64t-182 -70q-62 -71 -62 -194v-1114h-164v897h-164v139
h164v109q0 166 111 269q113 104 301 104t288 -104t100 -243q0 -137 -73 -233q-74 -96 -160 -127v-41z" />
    <glyph glyph-name="agrave" unicode="&#xe0;" horiz-adv-x="1118" 
d="M635 1194h-115l-215 293v41h205l125 -293v-41zM770 174q-60 -194 -318 -194q-140 0 -228 85q-89 85 -89 232q0 315 471 344l195 12v29q1 119 -61 176t-169 57q-169 1 -247 -161l-150 63q90 240 397 240q385 0 385 -371v-686h-145v174h-41zM801 434v88l-178 -10
q-324 -18 -324 -215q0 -180 203 -180q139 0 219 93t80 224z" />
    <glyph glyph-name="aacute" unicode="&#xe1;" horiz-adv-x="1118" 
d="M508 1194v41l125 293h205v-41l-215 -293h-115zM770 174q-60 -194 -318 -194q-140 0 -228 85q-89 85 -89 232q0 315 471 344l195 12v29q1 119 -61 176t-169 57q-169 1 -247 -161l-150 63q90 240 397 240q385 0 385 -371v-686h-145v174h-41zM801 434v88l-178 -10
q-324 -18 -324 -215q0 -180 203 -180q139 0 219 93t80 224z" />
    <glyph glyph-name="acircumflex" unicode="&#xe2;" horiz-adv-x="1118" 
d="M868 1194h-118l-160 174h-41l-160 -174h-119v41l213 293h172l213 -293v-41zM770 174q-60 -194 -318 -194q-140 0 -228 85q-89 85 -89 232q0 315 471 344l195 12v29q1 119 -61 176t-169 57q-169 1 -247 -161l-150 63q90 240 397 240q385 0 385 -371v-686h-145v174h-41z
M801 434v88l-178 -10q-324 -18 -324 -215q0 -180 203 -180q139 0 219 93t80 224z" />
    <glyph glyph-name="atilde" unicode="&#xe3;" horiz-adv-x="1118" 
d="M715 1214q-66 0 -152 64t-119 63q-51 0 -73 -116l-127 20q35 236 194 236q66 1 152 -63t119 -64q51 0 73 116l127 -20q-34 -236 -194 -236zM770 174q-60 -194 -318 -194q-140 0 -228 85q-89 85 -89 232q0 315 471 344l195 12v29q1 119 -61 176t-169 57q-169 1 -247 -161
l-150 63q90 240 397 240q385 0 385 -371v-686h-145v174h-41zM801 434v88l-178 -10q-324 -18 -324 -215q0 -180 203 -180q139 0 219 93t80 224z" />
    <glyph glyph-name="adieresis" unicode="&#xe4;" horiz-adv-x="1118" 
d="M657 1356q0 51 35 86t86 35t86 -35t35 -86t-35 -86t-86 -35t-86 35t-35 86zM244 1356q0 51 35 86t86 35t86 -35t35 -86t-36 -86q-34 -35 -85 -35t-86 35t-35 86zM770 174q-60 -194 -318 -194q-140 0 -228 85q-89 85 -89 232q0 315 471 344l195 12v29q1 119 -61 176
t-169 57q-169 1 -247 -161l-150 63q90 240 397 240q385 0 385 -371v-686h-145v174h-41zM801 434v88l-178 -10q-324 -18 -324 -215q0 -180 203 -180q139 0 219 93t80 224z" />
    <glyph glyph-name="aring" unicode="&#xe5;" horiz-adv-x="1118" 
d="M455 1411q-1 -53 33 -89t83 -36t83 36t34 89t-34 89t-83 36t-83 -36t-33 -89zM344 1411q0 95 65 157t163 62t162 -62q65 -62 65 -156t-65 -158q-65 -62 -163 -62q-99 0 -163 62t-64 157zM770 174q-60 -194 -318 -194q-140 0 -228 85q-89 85 -89 232q0 315 471 344l195 12
v29q1 119 -61 176t-169 57q-169 1 -247 -161l-150 63q90 240 397 240q385 0 385 -371v-686h-145v174h-41zM801 434v88l-178 -10q-324 -18 -324 -215q0 -180 203 -180q139 0 219 93t80 224z" />
    <glyph glyph-name="ae" unicode="&#xe6;" horiz-adv-x="1789" 
d="M1237 915q-248 0 -279 -313h545q0 313 -266 313zM801 434v88l-178 -10q-324 -18 -324 -215q0 -180 203 -180q139 0 219 93t80 224zM1233 -20q-252 0 -361 202q-117 -203 -401 -202q-158 0 -247 85t-89 232q0 315 471 344l195 12v29q1 119 -61 176t-169 57
q-170 0 -247 -161l-150 63q90 240 397 240q250 0 336 -154q117 154 323 154t326 -119t121 -379v-88h-721v-31q14 -152 85 -236t196 -83q184 -1 272 151l144 -73q-109 -219 -420 -219z" />
    <glyph glyph-name="ccedilla" unicode="&#xe7;" horiz-adv-x="1071" 
d="M578 1057q330 0 401 -291l-160 -43q-51 190 -241 190q-148 0 -220 -105q-72 -106 -72 -290t72 -290q72 -105 220 -105q190 0 241 190l160 -43q-70 -281 -381 -290l-63 -101q41 19 107 19t112 -39q47 -39 47 -114q1 -75 -61 -122t-183 -47t-211 66l55 90q82 -51 178 -51
t97 69q0 63 -92 64q-61 0 -107 -45l-82 59l99 158q-170 25 -276 155q-105 131 -105 392t132 393t333 131z" />
    <glyph glyph-name="egrave" unicode="&#xe8;" horiz-adv-x="1118" 
d="M627 1194h-115l-215 293v41h205l125 -293v-41zM565 915q-248 0 -278 -313h544q0 313 -266 313zM561 -20q-193 0 -321 131t-127 406q0 275 130 407q129 132 325 133q196 0 317 -119t121 -379v-88h-723q10 -164 81 -257t201 -93q185 -1 273 151l143 -73
q-109 -219 -420 -219z" />
    <glyph glyph-name="eacute" unicode="&#xe9;" horiz-adv-x="1118" 
d="M500 1194v41l125 293h204v-41l-215 -293h-114zM565 915q-248 0 -278 -313h544q0 313 -266 313zM561 -20q-193 0 -321 131t-127 406q0 275 130 407q129 132 325 133q196 0 317 -119t121 -379v-88h-723q10 -164 81 -257t201 -93q185 -1 273 151l143 -73
q-109 -219 -420 -219z" />
    <glyph glyph-name="ecircumflex" unicode="&#xea;" horiz-adv-x="1118" 
d="M860 1194h-119l-159 174h-41l-160 -174h-119v41l213 293h172l213 -293v-41zM565 915q-248 0 -278 -313h544q0 313 -266 313zM561 -20q-193 0 -321 131t-127 406q0 275 130 407q129 132 325 133q196 0 317 -119t121 -379v-88h-723q10 -164 81 -257t201 -93q185 -1 273 151
l143 -73q-109 -219 -420 -219z" />
    <glyph glyph-name="edieresis" unicode="&#xeb;" horiz-adv-x="1118" 
d="M649 1356q0 51 35 86t86 35t86 -35t35 -86t-35 -86t-86 -35t-86 35t-35 86zM236 1356q0 51 34 86q35 35 86 35t86 -35t35 -86t-35 -86t-86 -35t-86 35q-34 35 -34 86zM565 915q-248 0 -278 -313h544q0 313 -266 313zM561 -20q-193 0 -321 131t-127 406q0 275 130 407
q129 132 325 133q196 0 317 -119t121 -379v-88h-723q10 -164 81 -257t201 -93q185 -1 273 151l143 -73q-109 -219 -420 -219z" />
    <glyph glyph-name="igrave" unicode="&#xec;" horiz-adv-x="532" 
d="M328 1194h-115l-215 293v41h205l125 -293v-41zM348 0h-164v1036h164v-1036z" />
    <glyph glyph-name="iacute" unicode="&#xed;" horiz-adv-x="532" 
d="M201 1194v41l125 293h204v-41l-215 -293h-114zM348 0h-164v1036h164v-1036z" />
    <glyph glyph-name="icircumflex" unicode="&#xee;" horiz-adv-x="532" 
d="M561 1194h-119l-159 174h-41l-160 -174h-119v41l213 293h172l213 -293v-41zM348 0h-164v1036h164v-1036z" />
    <glyph glyph-name="idieresis" unicode="&#xef;" horiz-adv-x="532" 
d="M350 1356q0 51 35 86t86 35t86 -35t35 -86t-35 -86t-86 -35t-86 35t-35 86zM-63 1356q0 51 34 86q35 35 86 35t86 -35t35 -86t-35 -86t-86 -35t-86 35q-34 35 -34 86zM348 0h-164v1036h164v-1036z" />
    <glyph glyph-name="eth" unicode="&#xf0;" horiz-adv-x="1167" 
d="M582 123q152 -1 226 107t73 289q0 181 -75 287q-74 106 -226 107q-152 0 -223 -105t-70 -288q0 -397 295 -397zM1055 602q0 -623 -480 -622q-215 0 -339 142t-123 394q0 252 123 397t295 145t245 -134h45q-45 154 -215 301l-209 -121l-65 108l166 97q-88 57 -183 90
l54 137q152 -55 270 -145l203 118l65 -108l-164 -96q152 -145 232 -333t80 -370z" />
    <glyph glyph-name="ntilde" unicode="&#xf1;" horiz-adv-x="1191" 
d="M766 1214q-66 0 -152 64t-118 63q-51 0 -74 -116l-127 20q35 236 194 236q66 1 152 -63t119 -64q51 0 74 116l127 -20q-35 -236 -195 -236zM184 0v1036h164v-162h41q27 80 103 132t198 51q338 0 338 -404v-653h-166v614q0 150 -54 225t-178 75t-203 -91q-79 -90 -79 -248
v-575h-164z" />
    <glyph glyph-name="ograve" unicode="&#xf2;" horiz-adv-x="1155" 
d="M641 1194h-115l-215 293v41h205l125 -293v-41zM578 1057q200 0 332 -131q132 -132 132 -408t-132 -407t-332 -131t-333 131q-132 131 -132 407t132 408t333 131zM578 123q147 0 219 105q71 106 71 290t-71 290q-72 105 -219 105q-148 0 -220 -105q-72 -106 -72 -290
t72 -290q73 -105 220 -105z" />
    <glyph glyph-name="oacute" unicode="&#xf3;" horiz-adv-x="1155" 
d="M514 1194v41l125 293h205v-41l-215 -293h-115zM578 1057q200 0 332 -131q132 -132 132 -408t-132 -407t-332 -131t-333 131q-132 131 -132 407t132 408t333 131zM578 123q147 0 219 105q71 106 71 290t-71 290q-72 105 -219 105q-148 0 -220 -105q-72 -106 -72 -290
t72 -290q73 -105 220 -105z" />
    <glyph glyph-name="ocircumflex" unicode="&#xf4;" horiz-adv-x="1155" 
d="M874 1194h-118l-160 174h-41l-160 -174h-119v41l213 293h173l212 -293v-41zM578 1057q200 0 332 -131q132 -132 132 -408t-132 -407t-332 -131t-333 131q-132 131 -132 407t132 408t333 131zM578 123q147 0 219 105q71 106 71 290t-71 290q-72 105 -219 105
q-148 0 -220 -105q-72 -106 -72 -290t72 -290q73 -105 220 -105z" />
    <glyph glyph-name="otilde" unicode="&#xf5;" horiz-adv-x="1155" 
d="M721 1214q-66 0 -152 64t-118 63q-51 0 -74 -116l-127 20q35 236 194 236q66 1 152 -63t119 -64q51 0 73 116l127 -20q-34 -236 -194 -236zM578 1057q200 0 332 -131q132 -132 132 -408t-132 -407t-332 -131t-333 131q-132 131 -132 407t132 408t333 131zM578 123
q147 0 219 105q71 106 71 290t-71 290q-72 105 -219 105q-148 0 -220 -105q-72 -106 -72 -290t72 -290q73 -105 220 -105z" />
    <glyph glyph-name="odieresis" unicode="&#xf6;" horiz-adv-x="1155" 
d="M664 1356q0 51 34 86q35 35 86 35t86 -35t35 -86t-35 -86t-86 -35t-86 35q-34 35 -34 86zM250 1356q0 51 35 86t86 35t86 -35t35 -86t-35 -86t-86 -35t-86 35t-35 86zM578 1057q200 0 332 -131q132 -132 132 -408t-132 -407t-332 -131t-333 131q-132 131 -132 407
t132 408t333 131zM578 123q147 0 219 105q71 106 71 290t-71 290q-72 105 -219 105q-148 0 -220 -105q-72 -106 -72 -290t72 -290q73 -105 220 -105z" />
    <glyph glyph-name="divide" unicode="&#xf7;" 
d="M485 987q0 57 40 98q39 41 99 41t100 -41t40 -98t-40 -98t-99 -41t-100 41q-40 41 -40 98zM485 211q0 59 40 99q39 40 99 40t100 -40t40 -99t-40 -99t-99 -40t-100 40q-40 40 -40 99zM238 526v146h772v-146h-772z" />
    <glyph glyph-name="oslash" unicode="&#xf8;" horiz-adv-x="1155" 
d="M578 111q154 -1 228 109t75 282q0 172 -52 272l-421 -614q68 -49 170 -49zM274 533q0 -173 52 -273l424 614q-70 51 -172 52q-154 0 -229 -110t-75 -283zM578 1057q145 0 251 -66l74 107h121v-41l-100 -148q118 -143 118 -405t-132 -393t-332 -131q-143 0 -252 63
l-72 -104h-123v41l100 145q-119 139 -119 404t133 397q132 132 333 131z" />
    <glyph glyph-name="ugrave" unicode="&#xf9;" horiz-adv-x="1171" 
d="M637 1194h-115l-215 293v41h205l125 -293v-41zM987 1036v-1036h-164v162h-41q-24 -80 -98 -131t-192 -51q-328 0 -328 403v653h166v-614q0 -150 52 -224t170 -75q118 0 194 90t77 248v575h164z" />
    <glyph glyph-name="uacute" unicode="&#xfa;" horiz-adv-x="1171" 
d="M510 1194v41l125 293h205v-41l-215 -293h-115zM987 1036v-1036h-164v162h-41q-24 -80 -98 -131t-192 -51q-328 0 -328 403v653h166v-614q0 -150 52 -224t170 -75q118 0 194 90t77 248v575h164z" />
    <glyph glyph-name="ucircumflex" unicode="&#xfb;" horiz-adv-x="1171" 
d="M870 1194h-118l-160 174h-41l-160 -174h-119v41l213 293h172l213 -293v-41zM987 1036v-1036h-164v162h-41q-24 -80 -98 -131t-192 -51q-328 0 -328 403v653h166v-614q0 -150 52 -224t170 -75q118 0 194 90t77 248v575h164z" />
    <glyph glyph-name="udieresis" unicode="&#xfc;" horiz-adv-x="1171" 
d="M659 1356q0 51 35 86t86 35t86 -35t35 -86t-35 -86t-86 -35t-86 35t-35 86zM246 1356q0 51 35 86t86 35t86 -35t35 -86t-36 -86q-34 -35 -85 -35t-86 35t-35 86zM987 1036v-1036h-164v162h-41q-24 -80 -98 -131t-192 -51q-328 0 -328 403v653h166v-614q0 -150 52 -224
t170 -75q118 0 194 90t77 248v575h164z" />
    <glyph glyph-name="yacute" unicode="&#xfd;" horiz-adv-x="1087" 
d="M481 1194v41l125 293h205v-41l-215 -293h-115zM72 1036h155l299 -817h41l297 817h152v-41l-412 -1069q-137 -356 -416 -356q-147 0 -233 59l70 135q71 -51 161 -51t161 76t116 191l-391 1015v41z" />
    <glyph glyph-name="thorn" unicode="&#xfe;" horiz-adv-x="1230" 
d="M649 123q147 0 219 105q72 106 72 290t-72 290t-219 105q-147 0 -219 -105q-72 -106 -72 -290t72 -290t219 -105zM1114 518q0 -258 -112 -398t-302 -140q-233 0 -311 196h-41v-586h-164v1905h164v-635h41q78 197 311 197q190 -1 302 -141t112 -398z" />
    <glyph glyph-name="ydieresis" unicode="&#xff;" horiz-adv-x="1087" 
d="M631 1356q0 51 35 86t86 35t86 -35q34 -35 34 -86t-34 -86t-86 -35q-51 0 -86 35t-35 86zM217 1356q0 51 35 86t86 35t86 -35t35 -86t-35 -86t-86 -35t-86 35t-35 86zM72 1036h155l299 -817h41l297 817h152v-41l-412 -1069q-137 -356 -416 -356q-147 0 -233 59l70 135
q71 -51 161 -51t161 76t116 191l-391 1015v41z" />
    <glyph glyph-name="Amacron" unicode="&#x100;" horiz-adv-x="1343" 
d="M399 1511v138h545v-138h-545zM643 1139l-242 -660h529l-246 660h-41zM82 0v51l485 1313h201l494 -1313v-51h-154l-123 332h-639l-121 -332h-143z" />
    <glyph glyph-name="amacron" unicode="&#x101;" horiz-adv-x="1118" 
d="M309 1266v137h545v-137h-545zM770 174q-60 -194 -318 -194q-140 0 -228 85q-89 85 -89 232q0 315 471 344l195 12v29q1 119 -61 176t-169 57q-169 1 -247 -161l-150 63q90 240 397 240q385 0 385 -371v-686h-145v174h-41zM801 434v88l-178 -10q-324 -18 -324 -215
q0 -180 203 -180q139 0 219 93t80 224z" />
    <glyph glyph-name="Abreve" unicode="&#x102;" horiz-adv-x="1343" 
d="M672 1448q-121 0 -206 72t-99 221l129 16q26 -176 176 -176t176 176l129 -16q-14 -149 -99 -221t-206 -72zM643 1139l-242 -660h529l-246 660h-41zM82 0v51l485 1313h201l494 -1313v-51h-154l-123 332h-639l-121 -332h-143z" />
    <glyph glyph-name="abreve" unicode="&#x103;" horiz-adv-x="1118" 
d="M571 1202q-121 0 -205 72t-100 221l129 16q27 -176 177 -176t176 176l129 -16q-13 -149 -99 -221t-207 -72zM770 174q-60 -194 -318 -194q-140 0 -228 85q-89 85 -89 232q0 315 471 344l195 12v29q1 119 -61 176t-169 57q-169 1 -247 -161l-150 63q90 240 397 240
q385 0 385 -371v-686h-145v174h-41zM801 434v88l-178 -10q-324 -18 -324 -215q0 -180 203 -180q139 0 219 93t80 224z" />
    <glyph glyph-name="Aogonek" unicode="&#x104;" horiz-adv-x="1343" 
d="M643 1139l-242 -660h527l-244 660h-41zM1156 -424q-101 0 -164 46q-62 46 -62 122q0 139 184 238l-131 350h-637l-121 -332h-143v51l485 1313h201l494 -1313v-51q-195 -102 -195 -227q0 -39 29 -62t84 -23t102 38l55 -91q-80 -59 -181 -59z" />
    <glyph glyph-name="aogonek" unicode="&#x105;" horiz-adv-x="1118" 
d="M801 434v88l-178 -10q-324 -18 -324 -215q0 -180 203 -180q139 0 219 93t80 224zM770 174q-60 -194 -318 -194q-140 0 -228 85q-89 85 -89 232q0 315 471 344l195 12v29q1 119 -61 176t-169 57q-170 0 -247 -161l-150 63q90 240 397 240q385 0 385 -371v-686
q-195 -102 -194 -227q0 -39 29 -62t84 -23t102 38l55 -91q-80 -59 -181 -59t-164 46q-62 46 -62 122q0 135 186 240v190h-41z" />
    <glyph glyph-name="Cacute" unicode="&#x106;" horiz-adv-x="1312" 
d="M645 1440v41l125 293h205v-41l-215 -293h-115zM711 -20q-283 0 -441 181t-157 521q0 340 157 521q158 181 441 181q201 0 336 -92t174 -282l-164 -39q-29 133 -112 199t-238 65q-416 0 -416 -553q0 -274 98 -414t318 -139q153 1 237 65t113 199l164 -39
q-37 -190 -174 -282t-336 -92z" />
    <glyph glyph-name="cacute" unicode="&#x107;" horiz-adv-x="1071" 
d="M514 1194v41l125 293h205v-41l-215 -293h-115zM578 1057q330 0 401 -291l-160 -43q-51 190 -241 190q-148 0 -220 -105q-72 -106 -72 -290t72 -290q72 -105 220 -105q190 0 241 190l160 -43q-72 -291 -401 -290q-201 0 -333 131t-132 407t132 408t333 131z" />
    <glyph glyph-name="Ccircumflex" unicode="&#x108;" horiz-adv-x="1312" 
d="M1008 1440h-119l-160 174h-41l-160 -174h-118v41l213 293h172l213 -293v-41zM711 -20q-283 0 -441 181t-157 521q0 340 157 521q158 181 441 181q201 0 336 -92t174 -282l-164 -39q-29 133 -112 199t-238 65q-416 0 -416 -553q0 -274 98 -414t318 -139q153 1 237 65
t113 199l164 -39q-37 -190 -174 -282t-336 -92z" />
    <glyph glyph-name="ccircumflex" unicode="&#x109;" horiz-adv-x="1071" 
d="M874 1194h-118l-160 174h-41l-160 -174h-119v41l213 293h173l212 -293v-41zM578 1057q330 0 401 -291l-160 -43q-51 190 -241 190q-148 0 -220 -105q-72 -106 -72 -290t72 -290q72 -105 220 -105q190 0 241 190l160 -43q-72 -291 -401 -290q-201 0 -333 131t-132 407
t132 408t333 131z" />
    <glyph glyph-name="Cdotaccent" unicode="&#x10a;" horiz-adv-x="1312" 
d="M582 1637q0 52 35 88q37 36 89 36t88 -37t36 -88t-36 -87t-89 -36t-89 36q-34 36 -34 88zM711 -20q-283 0 -441 181t-157 521q0 340 157 521q158 181 441 181q201 0 336 -92t174 -282l-164 -39q-29 133 -112 199t-238 65q-416 0 -416 -553q0 -274 98 -414t318 -139
q153 1 237 65t113 199l164 -39q-37 -190 -174 -282t-336 -92z" />
    <glyph glyph-name="cdotaccent" unicode="&#x10b;" horiz-adv-x="1071" 
d="M455 1392q0 52 35 88q36 36 88 36t89 -37q35 -37 35 -88t-36 -87t-88 -36q-53 0 -89 36q-34 36 -34 88zM578 1057q330 0 401 -291l-160 -43q-51 190 -241 190q-148 0 -220 -105q-72 -106 -72 -290t72 -290q72 -105 220 -105q190 0 241 190l160 -43q-72 -291 -401 -290
q-201 0 -333 131t-132 407t132 408t333 131z" />
    <glyph glyph-name="Ccaron" unicode="&#x10c;" horiz-adv-x="1312" 
d="M1008 1774v-41l-213 -293h-172l-213 293v41h118l160 -175h41l160 175h119zM711 -20q-283 0 -441 181t-157 521q0 340 157 521q158 181 441 181q201 0 336 -92t174 -282l-164 -39q-29 133 -112 199t-238 65q-416 0 -416 -553q0 -274 98 -414t318 -139q153 1 237 65
t113 199l164 -39q-37 -190 -174 -282t-336 -92z" />
    <glyph glyph-name="ccaron" unicode="&#x10d;" horiz-adv-x="1071" 
d="M877 1528v-41l-213 -293h-172l-213 293v41h118l160 -174h41l160 174h119zM578 1057q330 0 401 -291l-160 -43q-51 190 -241 190q-148 0 -220 -105q-72 -106 -72 -290t72 -290q72 -105 220 -105q190 0 241 190l160 -43q-72 -291 -401 -290q-201 0 -333 131t-132 407
t132 408t333 131z" />
    <glyph glyph-name="Dcaron" unicode="&#x10e;" horiz-adv-x="1411" 
d="M958 1774v-41l-213 -293h-172l-213 293v41h119l160 -175h41l160 175h118zM195 0v1364h481q622 0 622 -682t-622 -682h-481zM1122 682q0 262 -103 397t-360 135h-294v-1064h294q256 0 360 135q103 135 103 397z" />
    <glyph glyph-name="dcaron" unicode="&#x10f;" horiz-adv-x="1474" 
d="M582 123q147 0 219 105q71 106 71 290t-71 290q-72 105 -219 105q-148 0 -220 -105q-72 -106 -72 -290t72 -290q73 -105 220 -105zM117 518q0 258 111 398q112 140 302 141q233 0 312 -197h41v635h164v-1495h-164v176h-41q-78 -197 -312 -196q-190 0 -302 140
q-111 140 -111 398zM1470 1495v-41l-124 -334h-82v375h206z" />
    <glyph glyph-name="Dcroat" unicode="&#x110;" horiz-adv-x="1433" 
d="M1145 682q1 262 -103 397t-360 135h-295v-462h264v-134h-264v-468h295q256 0 360 135t103 397zM92 618v134h125v612h481q623 0 623 -682t-623 -682h-481v618h-125z" />
    <glyph glyph-name="dcroat" unicode="&#x111;" horiz-adv-x="1230" 
d="M582 123q147 0 219 105q71 106 71 290t-71 290q-72 105 -219 105q-148 0 -220 -105q-72 -106 -72 -290t72 -290q73 -105 220 -105zM117 518q0 258 111 398q112 140 302 141q233 0 312 -197h41v311h-269v129h269v195h164v-195h141v-129h-141v-1171h-164v176h-41
q-78 -197 -312 -196q-190 0 -302 140q-111 140 -111 398z" />
    <glyph glyph-name="Emacron" unicode="&#x112;" horiz-adv-x="1226" 
d="M369 1511v138h544v-138h-544zM195 0v1364h872v-150h-702v-438h610v-147h-610v-479h718v-150h-888z" />
    <glyph glyph-name="emacron" unicode="&#x113;" horiz-adv-x="1118" 
d="M301 1266v137h545v-137h-545zM565 915q-248 0 -278 -313h544q0 313 -266 313zM561 -20q-193 0 -321 131t-127 406q0 275 130 407q129 132 325 133q196 0 317 -119t121 -379v-88h-723q10 -164 81 -257t201 -93q185 -1 273 151l143 -73q-109 -219 -420 -219z" />
    <glyph glyph-name="Ebreve" unicode="&#x114;" horiz-adv-x="1226" 
d="M641 1448q-121 0 -206 72t-99 221l129 16q27 -176 177 -176t175 176l129 -16q-14 -149 -99 -221t-206 -72zM195 0v1364h872v-150h-702v-438h610v-147h-610v-479h718v-150h-888z" />
    <glyph glyph-name="ebreve" unicode="&#x115;" horiz-adv-x="1118" 
d="M563 1202q-121 0 -206 72t-99 221l129 16q27 -176 177 -176t175 176l129 -16q-14 -149 -99 -221t-206 -72zM565 915q-248 0 -278 -313h544q0 313 -266 313zM561 -20q-193 0 -321 131t-127 406q0 275 130 407q129 132 325 133q196 0 317 -119t121 -379v-88h-723
q10 -164 81 -257t201 -93q185 -1 273 151l143 -73q-109 -219 -420 -219z" />
    <glyph glyph-name="Edotaccent" unicode="&#x116;" horiz-adv-x="1226" 
d="M514 1637q0 52 36 88t87 36t88 -37t37 -88t-36 -87t-88 -36t-88 36t-36 88zM195 0v1364h872v-150h-702v-438h610v-147h-610v-479h718v-150h-888z" />
    <glyph glyph-name="edotaccent" unicode="&#x117;" horiz-adv-x="1118" 
d="M440 1392q0 52 36 88t87 36t88 -37t37 -88t-36 -87t-88 -36t-88 36t-36 88zM565 915q-248 0 -278 -313h544q0 313 -266 313zM561 -20q-193 0 -321 131t-127 406q0 275 130 407q129 132 325 133q196 0 317 -119t121 -379v-88h-723q10 -164 81 -257t201 -93q185 -1 273 151
l143 -73q-109 -219 -420 -219z" />
    <glyph glyph-name="Eogonek" unicode="&#x118;" horiz-adv-x="1226" 
d="M901 0h-706v1364h872v-150h-702v-438h610v-147h-610v-479h718v-150q-195 -102 -194 -227q0 -39 29 -62t84 -23t102 38l55 -91q-80 -59 -181 -59t-164 46q-62 46 -62 122q-1 129 149 215v41z" />
    <glyph glyph-name="eogonek" unicode="&#x119;" horiz-adv-x="1118" 
d="M565 915q-248 0 -278 -313h544q0 313 -266 313zM662 -424q-102 0 -163 46q-62 46 -63 122q0 109 117 195v41q-184 0 -312 131t-128 406t130 407q129 132 325 133q196 0 317 -119t121 -379v-88h-723q10 -164 81 -257t201 -93q184 0 273 151l143 -73q-57 -117 -219 -195
q-188 -92 -189 -231q0 -39 29 -62t84 -23t102 38l56 -91q-80 -59 -182 -59z" />
    <glyph glyph-name="Ecaron" unicode="&#x11a;" horiz-adv-x="1226" 
d="M940 1774v-41l-213 -293h-172l-213 293v41h119l160 -175h41l159 175h119zM195 0v1364h872v-150h-702v-438h610v-147h-610v-479h718v-150h-888z" />
    <glyph glyph-name="ecaron" unicode="&#x11b;" horiz-adv-x="1118" 
d="M862 1528v-41l-213 -293h-172l-213 293v41h119l160 -174h41l159 174h119zM565 915q-248 0 -278 -313h544q0 313 -266 313zM561 -20q-193 0 -321 131t-127 406q0 275 130 407q129 132 325 133q196 0 317 -119t121 -379v-88h-723q10 -164 81 -257t201 -93q185 -1 273 151
l143 -73q-109 -219 -420 -219z" />
    <glyph glyph-name="Gcircumflex" unicode="&#x11c;" horiz-adv-x="1411" 
d="M1020 1440h-119l-160 174h-41l-159 -174h-119v41l213 293h172l213 -293v-41zM688 580v145h557v-725h-170v201h-41q-82 -219 -366 -219q-256 0 -406 186t-150 520t159 515t444 181q209 0 355 -86t187 -268l-163 -41q-57 246 -385 246q-418 0 -418 -553q0 -272 97 -414
t319 -143q144 0 246 75q122 87 122 298v82h-387z" />
    <glyph glyph-name="gcircumflex" unicode="&#x11d;" horiz-adv-x="1234" 
d="M897 1194h-119l-160 174h-40l-160 -174h-119v41l213 293h172l213 -293v-41zM858 719q0 98 -70 151q-70 54 -186 54t-186 -54q-68 -54 -68 -151q0 -99 69 -151t185 -52t186 52t70 151zM162 243q0 73 49 119t123 50v41q-70 33 -112 103t-42 153q0 145 102 246t318 102
q139 0 229 -47h41q0 102 60 158t143 57h105v-156h-131q-59 0 -89 -35t-30 -90q34 -27 64 -88t30 -121q0 -170 -106 -261t-277 -91h-168q-156 0 -156 -111q0 -98 156 -98h283q414 0 413 -276q0 -150 -140 -239t-404 -89q-530 0 -531 266q0 94 73 150t169 61v41q-76 4 -124 43
t-48 112zM620 -303q204 0 296 52t92 136q0 141 -254 142h-219q-285 0 -285 -160q0 -82 83 -126t287 -44z" />
    <glyph glyph-name="Gbreve" unicode="&#x11e;" horiz-adv-x="1411" 
d="M721 1448q-121 0 -206 72t-99 221l129 16q27 -176 177 -176t175 176l129 -16q-14 -149 -99 -221t-206 -72zM688 580v145h557v-725h-170v201h-41q-82 -219 -366 -219q-256 0 -406 186t-150 520t159 515t444 181q209 0 355 -86t187 -268l-163 -41q-57 246 -385 246
q-418 0 -418 -553q0 -272 97 -414t319 -143q144 0 246 75q122 87 122 298v82h-387z" />
    <glyph glyph-name="gbreve" unicode="&#x11f;" horiz-adv-x="1234" 
d="M600 1202q-121 0 -206 72t-99 221l129 16q26 -176 176 -176t176 176l129 -16q-14 -149 -99 -221t-206 -72zM858 719q0 98 -70 151q-70 54 -186 54t-186 -54q-68 -54 -68 -151q0 -99 69 -151t185 -52t186 52t70 151zM162 243q0 73 49 119t123 50v41q-70 33 -112 103
t-42 153q0 145 102 246t318 102q139 0 229 -47h41q0 102 60 158t143 57h105v-156h-131q-59 0 -89 -35t-30 -90q34 -27 64 -88t30 -121q0 -170 -106 -261t-277 -91h-168q-156 0 -156 -111q0 -98 156 -98h283q414 0 413 -276q0 -150 -140 -239t-404 -89q-530 0 -531 266
q0 94 73 150t169 61v41q-76 4 -124 43t-48 112zM620 -303q204 0 296 52t92 136q0 141 -254 142h-219q-285 0 -285 -160q0 -82 83 -126t287 -44z" />
    <glyph glyph-name="Gdotaccent" unicode="&#x120;" horiz-adv-x="1411" 
d="M596 1637q0 52 36 88t87 36t88 -37t37 -88t-36 -87t-88 -36t-88 36t-36 88zM688 580v145h557v-725h-170v201h-41q-82 -219 -366 -219q-256 0 -406 186t-150 520t159 515t444 181q209 0 355 -86t187 -268l-163 -41q-57 246 -385 246q-418 0 -418 -553q0 -272 97 -414
t319 -143q144 0 246 75q122 87 122 298v82h-387z" />
    <glyph glyph-name="gdotaccent" unicode="&#x121;" horiz-adv-x="1234" 
d="M477 1392q0 52 36 88t87 36t88 -37t37 -88t-36 -87t-88 -36t-88 36t-36 88zM858 719q0 98 -70 151q-70 54 -186 54t-186 -54q-68 -54 -68 -151q0 -99 69 -151t185 -52t186 52t70 151zM162 243q0 73 49 119t123 50v41q-70 33 -112 103t-42 153q0 145 102 246t318 102
q139 0 229 -47h41q0 102 60 158t143 57h105v-156h-131q-59 0 -89 -35t-30 -90q34 -27 64 -88t30 -121q0 -170 -106 -261t-277 -91h-168q-156 0 -156 -111q0 -98 156 -98h283q414 0 413 -276q0 -150 -140 -239t-404 -89q-530 0 -531 266q0 94 73 150t169 61v41q-76 4 -124 43
t-48 112zM620 -303q204 0 296 52t92 136q0 141 -254 142h-219q-285 0 -285 -160q0 -82 83 -126t287 -44z" />
    <glyph glyph-name="Gcommaaccent" unicode="&#x122;" horiz-adv-x="1411" 
d="M674 -356q-53 0 -86 36t-33 88q0 54 37 91t91 37t92 -42t38 -107t-23 -128q-23 -64 -53 -113q-31 -49 -61 -102l-88 47l86 152v41zM688 580v145h557v-725h-170v201h-41q-82 -219 -366 -219q-256 0 -406 186t-150 520t159 515t444 181q209 0 355 -86t187 -268l-163 -41
q-57 246 -385 246q-418 0 -418 -553q0 -272 97 -414t319 -143q144 0 246 75q122 87 122 298v82h-387z" />
    <glyph glyph-name="gcommaaccent" unicode="&#x123;" horiz-adv-x="1234" 
d="M608 1423q53 1 86 -35t33 -90t-37 -90q-37 -37 -91 -37t-92 42t-38 107t23 128q23 64 53 113q31 49 61 102l88 -47l-86 -152v-41zM858 719q0 98 -70 151q-70 54 -186 54t-186 -54q-68 -54 -68 -151q0 -99 69 -151t185 -52t186 52t70 151zM162 243q0 73 49 119t123 50v41
q-70 33 -112 103t-42 153q0 145 102 246t318 102q139 0 229 -47h41q0 102 60 158t143 57h105v-156h-131q-59 0 -89 -35t-30 -90q34 -27 64 -88t30 -121q0 -170 -106 -261t-277 -91h-168q-156 0 -156 -111q0 -98 156 -98h283q414 0 413 -276q0 -150 -140 -239t-404 -89
q-530 0 -531 266q0 94 73 150t169 61v41q-76 4 -124 43t-48 112zM620 -303q204 0 296 52t92 136q0 141 -254 142h-219q-285 0 -285 -160q0 -82 83 -126t287 -44z" />
    <glyph glyph-name="Hcircumflex" unicode="&#x124;" horiz-adv-x="1413" 
d="M1006 1440h-119l-160 174h-41l-160 -174h-118v41l213 293h172l213 -293v-41zM195 0v1364h170v-594h684v594h170v-1364h-170v618h-684v-618h-170z" />
    <glyph glyph-name="hcircumflex" unicode="&#x125;" horiz-adv-x="1191" 
d="M565 1499h-119l-159 174h-41l-160 -174h-119v41l213 293h172l213 -293v-41zM184 0v1495h164v-621h41q27 80 103 132t198 51q338 0 338 -404v-653h-166v614q0 150 -54 225t-178 75t-203 -91q-79 -90 -79 -248v-575h-164z" />
    <glyph glyph-name="Hbar" unicode="&#x126;" horiz-adv-x="1454" 
d="M385 686h684v236h-684v-236zM92 922v133h123v309h170v-309h684v309h170v-309h123v-133h-123v-922h-170v537h-684v-537h-170v922h-123z" />
    <glyph glyph-name="hbar" unicode="&#x127;" horiz-adv-x="1191" 
d="M41 1171v129h143v195h164v-195h266v-129h-266v-297h41q27 80 103 132t198 51q338 0 338 -404v-653h-166v614q0 150 -54 225t-178 75t-203 -91q-79 -90 -79 -248v-575h-164v1171h-143z" />
    <glyph glyph-name="Itilde" unicode="&#x128;" horiz-adv-x="559" 
d="M418 1460q-66 0 -152 64t-119 63q-51 0 -73 -117l-127 21q35 236 194 235q66 0 152 -63t119 -64q51 0 73 117l127 -20q-34 -236 -194 -236zM195 0v1364h170v-1364h-170z" />
    <glyph glyph-name="itilde" unicode="&#x129;" horiz-adv-x="532" 
d="M408 1214q-66 0 -152 64t-119 63q-51 0 -74 -116l-126 20q35 236 194 236q66 1 152 -63t118 -64q51 0 74 116l127 -20q-34 -236 -194 -236zM348 0h-164v1036h164v-1036z" />
    <glyph glyph-name="Imacron" unicode="&#x12a;" horiz-adv-x="559" 
d="M8 1511v138h545v-138h-545zM195 0v1364h170v-1364h-170z" />
    <glyph glyph-name="imacron" unicode="&#x12b;" horiz-adv-x="532" 
d="M2 1266v137h545v-137h-545zM348 0h-164v1036h164v-1036z" />
    <glyph glyph-name="Ibreve" unicode="&#x12c;" horiz-adv-x="559" 
d="M281 1448q-121 0 -206 72t-100 221l129 16q27 -176 177 -176t176 176l129 -16q-14 -149 -99 -221t-206 -72zM195 0v1364h170v-1364h-170z" />
    <glyph glyph-name="ibreve" unicode="&#x12d;" horiz-adv-x="532" 
d="M264 1202q-121 0 -206 72t-99 221l129 16q26 -176 176 -176t176 176l129 -16q-14 -149 -99 -221t-206 -72zM348 0h-164v1036h164v-1036z" />
    <glyph glyph-name="Iogonek" unicode="&#x12e;" horiz-adv-x="559" 
d="M259 -424q-101 0 -164 46q-62 46 -62 122q0 127 162 225v1395h170v-1364q-195 -102 -195 -227q0 -39 29 -62t84 -23t102 38l55 -91q-80 -59 -181 -59z" />
    <glyph glyph-name="iogonek" unicode="&#x12f;" horiz-adv-x="532" 
d="M143 1391q0 53 36 89t87 36t87 -36t36 -89t-36 -89t-87 -36t-87 36t-36 89zM242 -424q-102 0 -163 46q-62 46 -63 122q0 131 168 229v1063h164v-1036q-195 -102 -194 -227q0 -39 28 -62t84 -23t103 38l55 -91q-80 -59 -182 -59z" />
    <glyph glyph-name="Idotaccent" unicode="&#x130;" horiz-adv-x="559" 
d="M154 1637q0 52 35 88q36 36 87 36q50 0 88 -37t38 -88t-36 -87t-88 -36t-89 36q-35 36 -35 88zM195 0v1364h170v-1364h-170z" />
    <glyph glyph-name="dotlessi" unicode="&#x131;" horiz-adv-x="532" 
d="M348 0h-164v1036h164v-1036z" />
    <glyph glyph-name="IJ" unicode="&#x132;" horiz-adv-x="1646" 
d="M1034 125q266 0 266 311v928h170v-930q0 -219 -112 -337t-316 -117q-354 0 -432 319l154 49q27 -100 95 -162q69 -61 175 -61zM195 0v1364h170v-1364h-170z" />
    <glyph glyph-name="Jcircumflex" unicode="&#x134;" horiz-adv-x="1087" 
d="M1126 1440h-118l-160 174h-41l-160 -174h-119v41l213 293h172l213 -293v-41zM475 125q266 0 266 311v928h170v-930q-1 -219 -113 -337t-315 -117q-354 0 -432 319l154 49q27 -100 95 -162q69 -61 175 -61z" />
    <glyph glyph-name="jcircumflex" unicode="&#x135;" horiz-adv-x="532" 
d="M561 1194h-119l-159 174h-41l-160 -174h-119v41l213 293h172l213 -293v-41zM184 -39v1075h164v-1073q0 -185 -92 -289t-246 -104q-87 -1 -153 24l39 136q50 -16 122 -16t119 67q47 68 47 180z" />
    <glyph glyph-name="Kcommaaccent" unicode="&#x136;" horiz-adv-x="1282" 
d="M653 -356q-53 0 -86 36t-33 88q0 54 37 91t91 37t93 -42q38 -42 38 -108q-1 -66 -13 -98q-12 -33 -18 -51q-6 -19 -22 -49t-25 -44q-8 -14 -30 -50t-30 -50l-88 47l86 152v41zM1221 0h-181l-487 641l-188 -205v-436h-170v1364h170v-657h41l602 657h184v-41l-526 -561
l555 -721v-41z" />
    <glyph glyph-name="kcommaaccent" unicode="&#x137;" horiz-adv-x="1091" 
d="M594 -356q-53 0 -86 36t-33 88q0 54 37 91t91 37t92 -42t38 -107t-23 -128q-23 -64 -53 -113q-31 -49 -61 -102l-88 47l86 152v41zM184 0v1495h164v-911h41l479 452h164v-41l-366 -354l368 -600v-41h-168l-321 543l-197 -181v-362h-164z" />
    <glyph glyph-name="kgreenlandic" unicode="&#x138;" horiz-adv-x="1105" 
d="M184 0v1036h164v-452h41l479 452h164v-41l-366 -354l368 -600v-41h-168l-321 543l-197 -181v-362h-164z" />
    <glyph glyph-name="Lacute" unicode="&#x139;" horiz-adv-x="1134" 
d="M201 1440v41l125 293h204v-41l-215 -293h-114zM195 0v1364h170v-1214h677v-150h-847z" />
    <glyph glyph-name="lacute" unicode="&#x13a;" horiz-adv-x="532" 
d="M184 1536v41l125 293h205v-41l-215 -293h-115zM348 0h-164v1495h164v-1495z" />
    <glyph glyph-name="Lcommaaccent" unicode="&#x13b;" horiz-adv-x="1134" 
d="M602 -356q-53 0 -86 36t-33 88q0 54 37 91t91 37t92 -42t38 -107t-12 -98q-12 -34 -18 -52q-7 -19 -23 -49t-24 -44t-30 -50t-30 -50l-88 47l86 152v41zM195 0v1364h170v-1214h677v-150h-847z" />
    <glyph glyph-name="lcommaaccent" unicode="&#x13c;" horiz-adv-x="532" 
d="M262 -356q-53 0 -86 36t-33 88q0 54 37 91t91 37q55 0 93 -42t38 -107t-13 -98q-12 -34 -18 -52q-7 -19 -23 -49t-24 -44t-30 -50t-30 -50l-88 47l86 152v41zM348 0h-164v1495h164v-1495z" />
    <glyph glyph-name="Lcaron" unicode="&#x13d;" horiz-adv-x="1134" 
d="M805 1364v-41l-125 -334h-82v375h207zM195 0v1364h170v-1214h677v-150h-847z" />
    <glyph glyph-name="lcaron" unicode="&#x13e;" horiz-adv-x="776" 
d="M772 1495v-41l-125 -334h-82v375h207zM348 0h-164v1495h164v-1495z" />
    <glyph glyph-name="Ldot" unicode="&#x13f;" horiz-adv-x="1134" 
d="M659 782q0 56 41 98q40 42 98 42t99 -41t41 -99t-41 -98q-41 -41 -98 -41t-99 41q-41 41 -41 98zM195 0v1364h170v-1214h677v-150h-847z" />
    <glyph glyph-name="ldot" unicode="&#x140;" horiz-adv-x="811" 
d="M532 584q0 59 41 99t99 40t98 -40q41 -40 41 -99q0 -60 -41 -100t-98 -40t-99 40q-41 41 -41 100zM348 0h-164v1495h164v-1495z" />
    <glyph glyph-name="Lslash" unicode="&#x141;" horiz-adv-x="1171" 
d="M92 442v133l139 76v713h170v-619l217 121h41v-133l-258 -143v-440h678v-150h-848v496l-98 -54h-41z" />
    <glyph glyph-name="lslash" unicode="&#x142;" horiz-adv-x="593" 
d="M31 426v125l184 100v844h164v-756l143 80h41v-125l-184 -100v-594h-164v504l-143 -78h-41z" />
    <glyph glyph-name="Nacute" unicode="&#x143;" horiz-adv-x="1458" 
d="M686 1440v41l125 293h205v-41l-215 -293h-115zM1100 262v1102h164v-1364h-207l-670 1102h-29v-1102h-163v1364h206l670 -1102h29z" />
    <glyph glyph-name="nacute" unicode="&#x144;" horiz-adv-x="1191" 
d="M559 1194v41l125 293h205v-41l-215 -293h-115zM184 0v1036h164v-162h41q27 80 103 132t198 51q338 0 338 -404v-653h-166v614q0 150 -54 225t-178 75t-203 -91q-79 -90 -79 -248v-575h-164z" />
    <glyph glyph-name="Ncommaaccent" unicode="&#x145;" horiz-adv-x="1458" 
d="M715 -356q-53 0 -86 36t-33 88q0 54 37 91t91 37t92 -42t38 -107t-23 -128q-23 -64 -53 -113q-31 -49 -61 -102l-88 47l86 152v41zM1100 262v1102h164v-1364h-207l-670 1102h-29v-1102h-163v1364h206l670 -1102h29z" />
    <glyph glyph-name="ncommaaccent" unicode="&#x146;" horiz-adv-x="1191" 
d="M596 -356q-53 0 -86 36t-33 88q0 54 37 91t91 37t92 -42t38 -107t-12 -98q-12 -34 -21 -62t-42 -79q-32 -51 -62 -104l-88 47l86 152v41zM184 0v1036h164v-162h41q27 80 103 132t198 51q338 0 338 -404v-653h-166v614q0 150 -54 225t-178 75t-203 -91q-79 -90 -79 -248
v-575h-164z" />
    <glyph glyph-name="Ncaron" unicode="&#x147;" horiz-adv-x="1458" 
d="M1049 1774v-41l-213 -293h-172l-213 293v41h118l160 -175h41l160 175h119zM1100 262v1102h164v-1364h-207l-670 1102h-29v-1102h-163v1364h206l670 -1102h29z" />
    <glyph glyph-name="ncaron" unicode="&#x148;" horiz-adv-x="1191" 
d="M922 1528v-41l-213 -293h-172l-213 293v41h118l160 -174h41l160 174h119zM184 0v1036h164v-162h41q27 80 103 132t198 51q338 0 338 -404v-653h-166v614q0 150 -54 225t-178 75t-203 -91q-79 -90 -79 -248v-575h-164z" />
    <glyph glyph-name="napostrophe" unicode="&#x149;" horiz-adv-x="1427" 
d="M61 1363q0 56 39 96q38 40 98 40t100 -45t40 -123t-37 -166t-129 -233l-92 55l117 203v39q-57 0 -97 39q-39 39 -39 95zM420 0v1036h164v-162h41q27 80 102 132q76 51 199 51q338 0 338 -404v-653h-166v614q0 150 -54 225t-179 75t-203 -91q-78 -90 -78 -248v-575h-164z
" />
    <glyph glyph-name="Eng" unicode="&#x14a;" horiz-adv-x="1458" 
d="M1098 262v1102h166v-1401q0 -185 -92 -289t-246 -104q-88 0 -154 24l39 136q49 -16 120 -16t117 60q46 62 50 167l-711 1161h-29v-1102h-163v1364h206l670 -1102h27z" />
    <glyph glyph-name="eng" unicode="&#x14b;" horiz-adv-x="1191" 
d="M862 -78v692q0 150 -54 225t-178 75t-203 -91q-79 -90 -79 -248v-575h-164v1036h164v-162h41q27 80 103 132t198 51q338 0 338 -404v-729q0 -184 -93 -288t-247 -105q-87 0 -153 25l38 135q49 -17 122 -17t120 68t47 180z" />
    <glyph glyph-name="Omacron" unicode="&#x14c;" horiz-adv-x="1433" 
d="M444 1511v138h545v-138h-545zM113 682q0 340 158 521q159 181 446 181t445 -181t159 -521q0 -340 -159 -521q-160 -181 -446 -181t-445 181q-158 181 -158 521zM1141 682q0 553 -428 553q-154 0 -251 -79t-133 -197q-36 -117 -36 -277t36 -278t133 -196t251 -79
q428 0 428 553z" />
    <glyph glyph-name="omacron" unicode="&#x14d;" horiz-adv-x="1155" 
d="M315 1266v137h545v-137h-545zM578 1057q200 0 332 -131q132 -132 132 -408t-132 -407t-332 -131t-333 131q-132 131 -132 407t132 408t333 131zM578 123q147 0 219 105q71 106 71 290t-71 290q-72 105 -219 105q-148 0 -220 -105q-72 -106 -72 -290t72 -290
q73 -105 220 -105z" />
    <glyph glyph-name="Obreve" unicode="&#x14e;" horiz-adv-x="1433" 
d="M717 1448q-121 0 -206 72t-99 221l129 16q27 -176 177 -176t175 176l129 -16q-14 -149 -99 -221t-206 -72zM113 682q0 340 158 521q159 181 446 181t445 -181t159 -521q0 -340 -159 -521q-160 -181 -446 -181t-445 181q-158 181 -158 521zM1141 682q0 553 -428 553
q-154 0 -251 -79t-133 -197q-36 -117 -36 -277t36 -278t133 -196t251 -79q428 0 428 553z" />
    <glyph glyph-name="obreve" unicode="&#x14f;" horiz-adv-x="1155" 
d="M578 1202q-121 0 -206 72t-100 221l129 16q27 -176 177 -176t176 176l129 -16q-14 -149 -99 -221t-206 -72zM578 1057q200 0 332 -131q132 -132 132 -408t-132 -407t-332 -131t-333 131q-132 131 -132 407t132 408t333 131zM578 123q147 0 219 105q71 106 71 290t-71 290
q-72 105 -219 105q-148 0 -220 -105q-72 -106 -72 -290t72 -290q73 -105 220 -105z" />
    <glyph glyph-name="Ohungarumlaut" unicode="&#x150;" horiz-adv-x="1433" 
d="M784 1440v41l125 293h176v-41l-190 -293h-111zM512 1440v41l125 293h176v-41l-190 -293h-111zM113 682q0 340 158 521q159 181 446 181t445 -181t159 -521q0 -340 -159 -521q-160 -181 -446 -181t-445 181q-158 181 -158 521zM1141 682q0 553 -428 553q-154 0 -251 -79
t-133 -197q-36 -117 -36 -277t36 -278t133 -196t251 -79q428 0 428 553z" />
    <glyph glyph-name="ohungarumlaut" unicode="&#x151;" horiz-adv-x="1155" 
d="M653 1194v41l125 293h176v-41l-190 -293h-111zM381 1194v41l125 293h176v-41l-190 -293h-111zM578 1057q200 0 332 -131q132 -132 132 -408t-132 -407t-332 -131t-333 131q-132 131 -132 407t132 408t333 131zM578 123q147 0 219 105q71 106 71 290t-71 290
q-72 105 -219 105q-148 0 -220 -105q-72 -106 -72 -290t72 -290q73 -105 220 -105z" />
    <glyph glyph-name="OE" unicode="&#x152;" horiz-adv-x="2078" 
d="M289 682q0 -262 103 -397t360 -135h295v1064h-295q-256 0 -360 -135t-103 -397zM1935 150v-150h-1200q-623 0 -622 682q0 682 622 682h1184v-150h-702v-438h610v-147h-610v-479h718z" />
    <glyph glyph-name="oe" unicode="&#x153;" horiz-adv-x="1873" 
d="M1321 915q-248 0 -279 -313h545q0 313 -266 313zM578 123q147 0 219 105q71 106 71 290t-71 290q-72 105 -219 105q-148 0 -220 -105q-72 -106 -72 -290t72 -290q73 -105 220 -105zM1317 -20q-256 0 -363 210q-111 -211 -376 -210q-201 0 -333 131t-132 407t132 408
t333 131q268 0 376 -213q109 213 365 213q201 0 321 -119t121 -379v-88h-723q10 -164 81 -257t202 -93q184 -1 272 151l144 -73q-109 -219 -420 -219z" />
    <glyph glyph-name="Racute" unicode="&#x154;" horiz-adv-x="1323" 
d="M557 1440v41l125 293h205v-41l-215 -293h-115zM1120 358v-120q0 -133 62 -195v-43h-160q-76 68 -76 219v131q0 113 -59 162t-199 49h-313v-561h-170v1364h516q207 0 313 -103t107 -280q0 -127 -66 -217t-172 -96v-41q101 -4 159 -79t58 -190zM721 1214h-346v-507h325
q119 1 190 71t71 193q1 123 -65 183t-175 60z" />
    <glyph glyph-name="racute" unicode="&#x155;" horiz-adv-x="915" 
d="M412 1194v41l125 293h204v-41l-215 -293h-114zM348 0h-164v1036h164v-162h41q21 76 81 130t155 53q207 0 268 -193l-156 -71q-43 115 -164 114q-98 0 -161 -102t-64 -270v-535z" />
    <glyph glyph-name="Rcommaaccent" unicode="&#x156;" horiz-adv-x="1323" 
d="M674 -356q-53 0 -86 36t-33 88q0 54 37 91t91 37t92 -42t38 -107t-23 -128q-23 -64 -53 -113q-31 -49 -61 -102l-88 47l86 152v41zM1120 358v-120q0 -133 62 -195v-43h-160q-76 68 -76 219v131q0 113 -59 162t-199 49h-313v-561h-170v1364h516q207 0 313 -103t107 -280
q0 -127 -66 -217t-172 -96v-41q101 -4 159 -79t58 -190zM721 1214h-346v-507h325q119 1 190 71t71 193q1 123 -65 183t-175 60z" />
    <glyph glyph-name="rcommaaccent" unicode="&#x157;" horiz-adv-x="915" 
d="M266 -356q-53 0 -86 36t-33 88q0 54 37 91t91 37q55 0 93 -42t38 -105t-12 -99q-12 -35 -19 -53q-7 -19 -23 -49t-24 -44t-30 -50t-30 -50l-88 47l86 152v41zM348 0h-164v1036h164v-162h41q21 76 81 130t155 53q207 0 268 -193l-156 -71q-43 115 -164 114
q-98 0 -161 -102t-64 -270v-535z" />
    <glyph glyph-name="Rcaron" unicode="&#x158;" horiz-adv-x="1323" 
d="M920 1774v-41l-213 -293h-172l-213 293v41h118l160 -175h41l160 175h119zM1120 358v-120q0 -133 62 -195v-43h-160q-76 68 -76 219v131q0 113 -59 162t-199 49h-313v-561h-170v1364h516q207 0 313 -103t107 -280q0 -127 -66 -217t-172 -96v-41q101 -4 159 -79t58 -190z
M721 1214h-346v-507h325q119 1 190 71t71 193q1 123 -65 183t-175 60z" />
    <glyph glyph-name="rcaron" unicode="&#x159;" horiz-adv-x="915" 
d="M774 1528v-41l-213 -293h-172l-213 293v41h119l160 -174h41l159 174h119zM348 0h-164v1036h164v-162h41q21 76 81 130t155 53q207 0 268 -193l-156 -71q-43 115 -164 114q-98 0 -161 -102t-64 -270v-535z" />
    <glyph glyph-name="Sacute" unicode="&#x15a;" horiz-adv-x="1247" 
d="M578 1440v41l124 293h205v-41l-215 -293h-114zM952 348q0 102 -48 154t-148 78l-283 73q-299 80 -299 363q0 166 127 267t315 101t310 -85q121 -85 153 -228l-164 -45q-25 102 -101 158q-78 55 -196 55t-198 -60t-80 -157q0 -172 188 -221l287 -74q305 -80 305 -360
q0 -183 -126 -285t-346 -102t-354 84t-175 249l164 47q59 -236 352 -235q153 0 235 61q82 60 82 162z" />
    <glyph glyph-name="sacute" unicode="&#x15b;" horiz-adv-x="1056" 
d="M475 1194v41l125 293h205v-41l-215 -293h-115zM540 115q112 0 179 48q66 48 65 128q0 109 -176 141l-180 35q-147 29 -215 97t-68 196q0 126 110 212t284 85q301 0 383 -234l-148 -63q-18 68 -80 114t-162 48q-100 0 -163 -44t-64 -120q0 -109 174 -142l180 -34
q139 -28 212 -92t73 -198t-110 -223t-290 -89q-182 0 -293 70t-138 194l151 59q24 -84 94 -136t182 -52z" />
    <glyph glyph-name="Scircumflex" unicode="&#x15c;" horiz-adv-x="1247" 
d="M940 1440h-119l-159 174h-41l-160 -174h-119v41l213 293h172l213 -293v-41zM952 348q0 102 -48 154t-148 78l-283 73q-299 80 -299 363q0 166 127 267t315 101t310 -85q121 -85 153 -228l-164 -45q-25 102 -101 158q-78 55 -196 55t-198 -60t-80 -157q0 -172 188 -221
l287 -74q305 -80 305 -360q0 -183 -126 -285t-346 -102t-354 84t-175 249l164 47q59 -236 352 -235q153 0 235 61q82 60 82 162z" />
    <glyph glyph-name="scircumflex" unicode="&#x15d;" horiz-adv-x="1056" 
d="M836 1194h-119l-160 174h-41l-160 -174h-118v41l213 293h172l213 -293v-41zM540 115q112 0 179 48q66 48 65 128q0 109 -176 141l-180 35q-147 29 -215 97t-68 196q0 126 110 212t284 85q301 0 383 -234l-148 -63q-18 68 -80 114t-162 48q-100 0 -163 -44t-64 -120
q0 -109 174 -142l180 -34q139 -28 212 -92t73 -198t-110 -223t-290 -89q-182 0 -293 70t-138 194l151 59q24 -84 94 -136t182 -52z" />
    <glyph glyph-name="Scedilla" unicode="&#x15e;" horiz-adv-x="1247" 
d="M952 348q0 102 -48 154t-148 78l-283 73q-299 80 -299 363q0 166 127 267t315 101t310 -85q121 -85 153 -228l-164 -45q-25 102 -101 158q-78 55 -196 55t-198 -60t-80 -157q0 -172 188 -221l287 -74q305 -80 305 -360q0 -179 -123 -281t-352 -106l-63 -101q40 19 106 19
t113 -39t47 -114t-62 -122t-182 -47q-121 0 -211 66l56 90q82 -51 178 -51t96 69q0 63 -92 64q-61 0 -107 -45l-82 59l99 156q-350 36 -422 329l164 47q59 -236 352 -235q153 0 235 61q82 60 82 162z" />
    <glyph glyph-name="scedilla" unicode="&#x15f;" horiz-adv-x="1056" 
d="M540 115q112 0 179 48q66 48 65 128q0 109 -176 141l-180 35q-147 29 -215 97t-68 196q0 126 110 212t284 85q301 0 383 -234l-148 -63q-18 68 -80 114t-162 48q-100 0 -163 -44t-64 -120q0 -109 174 -142l180 -34q139 -28 212 -92t73 -196t-103 -220t-290 -94l-64 -101
q41 19 107 19t113 -39t47 -114t-62 -122t-182 -47q-121 0 -211 66l55 90q82 -51 178 -51t97 69q0 63 -92 64q-61 0 -107 -45l-82 59l98 158q-135 14 -223 83q-87 69 -110 175l151 59q24 -84 94 -136t182 -52z" />
    <glyph glyph-name="Scaron" unicode="&#x160;" horiz-adv-x="1247" 
d="M940 1774v-41l-213 -293h-172l-213 293v41h119l160 -175h41l159 175h119zM952 348q0 102 -48 154t-148 78l-283 73q-299 80 -299 363q0 166 127 267t315 101t310 -85q121 -85 153 -228l-164 -45q-25 102 -101 158q-78 55 -196 55t-198 -60t-80 -157q0 -172 188 -221
l287 -74q305 -80 305 -360q0 -183 -126 -285t-346 -102t-354 84t-175 249l164 47q59 -236 352 -235q153 0 235 61q82 60 82 162z" />
    <glyph glyph-name="scaron" unicode="&#x161;" horiz-adv-x="1056" 
d="M838 1528v-41l-213 -293h-172l-213 293v41h118l160 -174h41l160 174h119zM540 115q112 0 179 48q66 48 65 128q0 109 -176 141l-180 35q-147 29 -215 97t-68 196q0 126 110 212t284 85q301 0 383 -234l-148 -63q-18 68 -80 114t-162 48q-100 0 -163 -44t-64 -120
q0 -109 174 -142l180 -34q139 -28 212 -92t73 -198t-110 -223t-290 -89q-182 0 -293 70t-138 194l151 59q24 -84 94 -136t182 -52z" />
    <glyph glyph-name="Tcommaaccent" unicode="&#x162;" horiz-adv-x="1224" 
d="M61 1214v150h1102v-150h-467v-1159l-110 -176q40 19 106 19t113 -39t47 -114t-61 -122t-182 -47t-212 66l56 90q82 -51 178 -51t96 69q0 63 -92 64q-61 0 -107 -45l-82 59l80 127v1259h-465z" />
    <glyph glyph-name="tcommaaccent" unicode="&#x163;" horiz-adv-x="851" 
d="M268 1434h164v-398h352v-135h-352v-588q0 -188 152 -188q82 0 159 49l66 -125q-100 -68 -246 -67q-23 0 -35 2l-65 -105q41 19 107 19t112 -39q47 -39 47 -114t-61 -122t-182 -47t-212 66l56 90q82 -51 178 -51t96 69q0 63 -92 64q-61 0 -106 -45l-82 59l108 174
q-164 59 -164 309v590h-202v135h202v398z" />
    <glyph glyph-name="Tcaron" unicode="&#x164;" horiz-adv-x="1224" 
d="M911 1774v-41l-213 -293h-172l-213 293v41h119l160 -175h41l160 175h118zM61 1214v150h1102v-150h-467v-1214h-170v1214h-465z" />
    <glyph glyph-name="tcaron" unicode="&#x165;" horiz-adv-x="851" 
d="M774 1536v-41l-125 -334h-82v375h207zM268 1434h164v-398h352v-135h-352v-588q0 -188 152 -188q82 0 159 49l66 -125q-100 -68 -246 -67q-295 0 -295 329v590h-202v135h202v398z" />
    <glyph glyph-name="Tbar" unicode="&#x166;" horiz-adv-x="1224" 
d="M61 1214v150h1102v-150h-467v-462h256v-134h-256v-618h-170v618h-254v134h254v462h-465z" />
    <glyph glyph-name="tbar" unicode="&#x167;" horiz-adv-x="882" 
d="M82 541v131h203v229h-203v135h203v398h164v-398h352v-135h-352v-229h352v-131h-352v-228q0 -188 151 -188q82 0 160 49l65 -125q-102 -68 -245 -67q-295 0 -295 329v230h-203z" />
    <glyph glyph-name="Utilde" unicode="&#x168;" horiz-adv-x="1376" 
d="M825 1460q-65 0 -151 64t-119 63q-51 0 -74 -117l-127 21q35 236 195 235q65 0 151 -63t119 -64q51 0 74 117l127 -20q-35 -236 -195 -236zM688 131q190 0 273 92q82 92 81 283v858h170v-866q0 -250 -131 -383t-393 -133t-393 133t-131 383v866h170v-858q0 -190 82 -282
t272 -93z" />
    <glyph glyph-name="utilde" unicode="&#x169;" horiz-adv-x="1171" 
d="M717 1214q-66 0 -152 64t-119 63q-51 0 -73 -116l-127 20q35 236 194 236q66 1 152 -63t119 -64q51 0 73 116l127 -20q-34 -236 -194 -236zM987 1036v-1036h-164v162h-41q-24 -80 -98 -131t-192 -51q-328 0 -328 403v653h166v-614q0 -150 52 -224t170 -75q118 0 194 90
t77 248v575h164z" />
    <glyph glyph-name="Umacron" unicode="&#x16a;" horiz-adv-x="1376" 
d="M416 1511v138h545v-138h-545zM688 131q190 0 273 92q82 92 81 283v858h170v-866q0 -250 -131 -383t-393 -133t-393 133t-131 383v866h170v-858q0 -190 82 -282t272 -93z" />
    <glyph glyph-name="umacron" unicode="&#x16b;" horiz-adv-x="1171" 
d="M311 1266v137h545v-137h-545zM987 1036v-1036h-164v162h-41q-24 -80 -98 -131t-192 -51q-328 0 -328 403v653h166v-614q0 -150 52 -224t170 -75q118 0 194 90t77 248v575h164z" />
    <glyph glyph-name="Ubreve" unicode="&#x16c;" horiz-adv-x="1376" 
d="M688 1448q-121 0 -206 72t-99 221l129 16q26 -176 176 -176t176 176l129 -16q-14 -149 -99 -221t-206 -72zM688 131q190 0 273 92q82 92 81 283v858h170v-866q0 -250 -131 -383t-393 -133t-393 133t-131 383v866h170v-858q0 -190 82 -282t272 -93z" />
    <glyph glyph-name="ubreve" unicode="&#x16d;" horiz-adv-x="1171" 
d="M573 1202q-121 0 -205 72t-100 221l129 16q27 -176 177 -176t176 176l129 -16q-13 -149 -99 -221t-207 -72zM987 1036v-1036h-164v162h-41q-24 -80 -98 -131t-192 -51q-328 0 -328 403v653h166v-614q0 -150 52 -224t170 -75q118 0 194 90t77 248v575h164z" />
    <glyph glyph-name="Uring" unicode="&#x16e;" horiz-adv-x="1376" 
d="M571 1657q0 -53 34 -89t83 -36t83 36t34 89t-34 89t-83 36t-83 -36t-34 -89zM461 1657q0 94 64 157q65 62 163 62t163 -62t65 -156t-65 -158q-65 -62 -163 -62t-163 62q-64 63 -64 157zM688 131q190 0 273 92q82 92 81 283v858h170v-866q0 -250 -131 -383t-393 -133
t-393 133t-131 383v866h170v-858q0 -190 82 -282t272 -93z" />
    <glyph glyph-name="uring" unicode="&#x16f;" horiz-adv-x="1171" 
d="M457 1411q-1 -53 33 -89t83 -36t83 36t34 89t-34 89t-83 36t-83 -36t-33 -89zM346 1411q0 95 65 157t163 62t162 -62q65 -62 65 -156t-65 -158q-65 -62 -163 -62q-99 0 -163 62t-64 157zM987 1036v-1036h-164v162h-41q-24 -80 -98 -131t-192 -51q-328 0 -328 403v653h166
v-614q0 -150 52 -224t170 -75q118 0 194 90t77 248v575h164z" />
    <glyph glyph-name="Uhungarumlaut" unicode="&#x170;" horiz-adv-x="1376" 
d="M776 1440v41l125 293h176v-41l-190 -293h-111zM504 1440v41l125 293h176v-41l-191 -293h-110zM688 131q190 0 273 92q82 92 81 283v858h170v-866q0 -250 -131 -383t-393 -133t-393 133t-131 383v866h170v-858q0 -190 82 -282t272 -93z" />
    <glyph glyph-name="uhungarumlaut" unicode="&#x171;" horiz-adv-x="1171" 
d="M649 1194v41l125 293h176v-41l-190 -293h-111zM377 1194v41l125 293h176v-41l-191 -293h-110zM987 1036v-1036h-164v162h-41q-24 -80 -98 -131t-192 -51q-328 0 -328 403v653h166v-614q0 -150 52 -224t170 -75q118 0 194 90t77 248v575h164z" />
    <glyph glyph-name="Uogonek" unicode="&#x172;" horiz-adv-x="1376" 
d="M647 -215q0 -99 113 -97q55 0 102 38l56 -91q-80 -59 -182 -59t-164 46t-62 122q0 115 121 197v41q-227 16 -347 145t-120 371v866h170v-858q0 -190 82 -282t272 -93q190 0 273 92q82 92 81 283v858h170v-866q0 -207 -89 -332t-279 -186q-92 -32 -144 -88t-53 -107z" />
    <glyph glyph-name="uogonek" unicode="&#x173;" horiz-adv-x="1171" 
d="M882 -424q-102 0 -164 46t-63 122q0 131 168 229v189h-41q-24 -80 -98 -131t-192 -51q-328 0 -328 403v653h166v-614q0 -150 52 -224t170 -75q118 0 194 90t77 248v575h164v-1036q-195 -102 -194 -227q1 -39 29 -62t84 -23t102 38l55 -91q-79 -59 -181 -59z" />
    <glyph glyph-name="Wcircumflex" unicode="&#x174;" horiz-adv-x="1904" 
d="M1247 1440h-119l-159 174h-41l-160 -174h-119v41l213 293h172l213 -293v-41zM1792 1364v-31l-283 -1333h-225l-311 1147h-31l-317 -1147h-224l-288 1333v31h159l242 -1143h31l315 1143h207l307 -1143h31l229 1143h158z" />
    <glyph glyph-name="wcircumflex" unicode="&#x175;" horiz-adv-x="1570" 
d="M1087 1194h-118l-160 174h-41l-160 -174h-119v41l213 293h172l213 -293v-41zM1489 1036v-41l-279 -995h-182l-219 786h-41l-221 -786h-185l-280 995v41h143l213 -796h41l223 796h168l234 -796h41l201 796h143z" />
    <glyph glyph-name="Ycircumflex" unicode="&#x176;" horiz-adv-x="1251" 
d="M924 1440h-119l-160 174h-41l-160 -174h-118v41l213 293h172l213 -293v-41zM1194 1364v-41l-485 -799v-524h-170v526l-482 797v41h160l391 -651h37l389 651h160z" />
    <glyph glyph-name="ycircumflex" unicode="&#x177;" horiz-adv-x="1087" 
d="M842 1194h-119l-160 174h-41l-160 -174h-118v41l213 293h172l213 -293v-41zM72 1036h155l299 -817h41l297 817h152v-41l-412 -1069q-137 -356 -416 -356q-147 0 -233 59l70 135q71 -51 161 -51t161 76t116 191l-391 1015v41z" />
    <glyph glyph-name="Ydieresis" unicode="&#x178;" horiz-adv-x="1251" 
d="M711 1602q0 51 34 86q35 34 86 34t87 -34q34 -35 34 -86t-34 -86t-86 -35t-87 35q-34 35 -34 86zM297 1602q0 51 35 86q35 34 86 34t86 -34t35 -86q0 -51 -35 -86t-86 -35t-86 35t-35 86zM1194 1364v-41l-485 -799v-524h-170v526l-482 797v41h160l391 -651h37l389 651
h160z" />
    <glyph glyph-name="Zacute" unicode="&#x179;" horiz-adv-x="1239" 
d="M557 1440v41l125 293h205v-41l-215 -293h-115zM334 152h792v-152h-1013v143l776 1031v40h-739v150h956v-150l-772 -1024v-38z" />
    <glyph glyph-name="zacute" unicode="&#x17a;" horiz-adv-x="1019" 
d="M459 1194v41l125 293h204v-41l-215 -293h-114zM338 141h559v-141h-774v182l557 662v51h-541v141h748v-190l-549 -653v-52z" />
    <glyph glyph-name="Zdotaccent" unicode="&#x17b;" horiz-adv-x="1239" 
d="M514 1637q0 52 36 88t87 36t88 -37t37 -88t-36 -87t-88 -36t-88 36t-36 88zM334 152h792v-152h-1013v143l776 1031v40h-739v150h956v-150l-772 -1024v-38z" />
    <glyph glyph-name="zdotaccent" unicode="&#x17c;" horiz-adv-x="1019" 
d="M399 1392q0 52 36 88t87 36t88 -37t37 -88t-36 -87t-88 -36t-88 36t-36 88zM338 141h559v-141h-774v182l557 662v51h-541v141h748v-190l-549 -653v-52z" />
    <glyph glyph-name="Zcaron" unicode="&#x17d;" horiz-adv-x="1239" 
d="M940 1774v-41l-213 -293h-172l-213 293v41h119l160 -175h41l159 175h119zM334 152h792v-152h-1013v143l776 1031v40h-739v150h956v-150l-772 -1024v-38z" />
    <glyph glyph-name="zcaron" unicode="&#x17e;" horiz-adv-x="1019" 
d="M821 1528v-41l-213 -293h-172l-213 293v41h119l160 -174h41l159 174h119zM338 141h559v-141h-774v182l557 662v51h-541v141h748v-190l-549 -653v-52z" />
    <glyph glyph-name="florin" unicode="&#x192;" horiz-adv-x="899" 
d="M82 752h246v358q0 406 331 406q137 0 240 -68l-68 -127q-71 51 -163 51t-134 -55t-42 -207v-358h272v-140h-272v-688q0 -184 -92 -288t-246 -105q-88 0 -154 25l39 135q49 -17 121 -17t121 68q47 68 47 180v690h-246v140z" />
    <glyph glyph-name="uni01B5" unicode="&#x1b5;" horiz-adv-x="1239" 
d="M262 618v134h309l318 422v40h-739v150h956v-150l-350 -462h250v-134h-351l-321 -428v-38h792v-152h-1013v143l358 475h-209z" />
    <glyph glyph-name="uni01B6" unicode="&#x1b6;" horiz-adv-x="1019" 
d="M190 453v129h269l221 262v51h-541v141h748v-190l-223 -264h167v-129h-276l-217 -260v-52h559v-141h-774v182l227 271h-160z" />
    <glyph glyph-name="Aringacute" unicode="&#x1fa;" horiz-adv-x="1343" 
d="M555 1489q0 -53 34 -89t83 -36t83 36t33 89q0 53 -33 89q-34 36 -83 36t-83 -36t-34 -89zM643 1139l-242 -660h529l-246 660h-41zM885 1864v-41l-160 -80v-41q78 -14 126 -74t48 -139q0 -127 -108 -189l471 -1249v-51h-154l-123 332h-639l-121 -332h-143v51l463 1254
q-100 59 -101 184q0 76 52 141l176 234h213z" />
    <glyph glyph-name="aringacute" unicode="&#x1fb;" horiz-adv-x="1118" 
d="M455 1411q-1 -53 33 -89t83 -36t83 36t34 89t-34 89t-83 36t-83 -36t-33 -89zM784 1786v-41l-159 -80v-41q78 -14 126 -74t48 -146q0 -88 -65 -150t-163 -62q-99 0 -163 62t-64 148t51 150l176 234h213zM770 174q-60 -194 -318 -194q-140 0 -228 85q-89 85 -89 232
q0 315 471 344l195 12v29q1 119 -61 176t-169 57q-169 1 -247 -161l-150 63q90 240 397 240q385 0 385 -371v-686h-145v174h-41zM801 434v88l-178 -10q-324 -18 -324 -215q0 -180 203 -180q139 0 219 93t80 224z" />
    <glyph glyph-name="AEacute" unicode="&#x1fc;" horiz-adv-x="1994" 
d="M1004 1440v41l124 293h205v-41l-215 -293h-114zM963 479v735h-291l-271 -735h562zM963 0v332h-617l-121 -332h-143v51l485 1313h1268v-150h-702v-438h610v-147h-610v-479h718v-150h-888z" />
    <glyph glyph-name="aeacute" unicode="&#x1fd;" horiz-adv-x="1789" 
d="M848 1194v41l125 293h205v-41l-215 -293h-115zM1237 915q-248 0 -279 -313h545q0 313 -266 313zM801 434v88l-178 -10q-324 -18 -324 -215q0 -180 203 -180q139 0 219 93t80 224zM1233 -20q-252 0 -361 202q-117 -203 -401 -202q-158 0 -247 85t-89 232q0 315 471 344
l195 12v29q1 119 -61 176t-169 57q-170 0 -247 -161l-150 63q90 240 397 240q250 0 336 -154q117 154 323 154t326 -119t121 -379v-88h-721v-31q14 -152 85 -236t196 -83q184 -1 272 151l144 -73q-109 -219 -420 -219z" />
    <glyph glyph-name="Oslashacute" unicode="&#x1fe;" horiz-adv-x="1445" 
d="M659 1440v41l125 293h205v-41l-215 -293h-115zM291 682q0 -215 65 -352l625 833q-98 80 -262 80q-428 0 -428 -561zM1155 682q0 227 -78 369l-628 -842q104 -88 270 -88q436 0 436 561zM119 696q0 326 159 507t445 181q209 0 350 -98l119 160h151v-41l-161 -217
q145 -180 145 -513t-159 -514t-445 -181q-221 0 -365 106l-110 -147h-154v41l158 210q-133 180 -133 506z" />
    <glyph glyph-name="oslashacute" unicode="&#x1ff;" horiz-adv-x="1155" 
d="M514 1194v41l125 293h205v-41l-215 -293h-115zM578 111q154 -1 228 109t75 282q0 172 -52 272l-421 -614q68 -49 170 -49zM274 533q0 -173 52 -273l424 614q-70 51 -172 52q-154 0 -229 -110t-75 -283zM578 1057q145 0 251 -66l74 107h121v-41l-100 -148
q118 -143 118 -405t-132 -393t-332 -131q-143 0 -252 63l-72 -104h-123v41l100 145q-119 139 -119 404t133 397q132 132 333 131z" />
    <glyph glyph-name="Scommaaccent" unicode="&#x218;" horiz-adv-x="1247" 
d="M629 -356q-53 0 -86 36t-33 88q0 54 37 91t91 37t92 -42t38 -107t-23 -128q-23 -64 -53 -113q-31 -49 -61 -102l-88 47l86 152v41zM952 348q0 102 -48 154t-148 78l-283 73q-299 80 -299 363q0 166 127 267t315 101t310 -85q121 -85 153 -228l-164 -45q-25 102 -101 158
q-78 55 -196 55t-198 -60t-80 -157q0 -172 188 -221l287 -74q305 -80 305 -360q0 -183 -126 -285t-346 -102t-354 84t-175 249l164 47q59 -236 352 -235q153 0 235 61q82 60 82 162z" />
    <glyph glyph-name="scommaaccent" unicode="&#x219;" horiz-adv-x="1056" 
d="M528 -356q-53 0 -86 36q-32 36 -32 88q0 54 36 91q38 37 92 37t92 -42t38 -108t-12 -98q-12 -33 -19 -51q-7 -19 -23 -49t-24 -44t-30 -50t-30 -50l-88 47l86 152v41zM540 115q112 0 179 48q66 48 65 128q0 109 -176 141l-180 35q-147 29 -215 97t-68 196q0 126 110 212
t284 85q301 0 383 -234l-148 -63q-18 68 -80 114t-162 48q-100 0 -163 -44t-64 -120q0 -109 174 -142l180 -34q139 -28 212 -92t73 -198t-110 -223t-290 -89q-182 0 -293 70t-138 194l151 59q24 -84 94 -136t182 -52z" />
    <glyph glyph-name="uni021A" unicode="&#x21a;" horiz-adv-x="1224" 
d="M604 -356q-53 0 -86 36t-33 88q0 54 37 91t91 37q55 0 93 -42t38 -107t-13 -98q-12 -34 -18 -52q-7 -19 -23 -49t-24 -44t-30 -50t-30 -50l-88 47l86 152v41zM61 1214v150h1102v-150h-467v-1214h-170v1214h-465z" />
    <glyph glyph-name="uni021B" unicode="&#x21b;" horiz-adv-x="851" 
d="M475 -356q-53 0 -86 36t-33 88q0 54 37 91t91 37t92 -42t38 -107t-12 -98q-12 -34 -18 -52q-6 -19 -22 -49t-25 -44q-8 -14 -30 -50t-30 -50l-88 47l86 152v41zM268 1434h164v-398h352v-135h-352v-588q0 -188 152 -188q82 0 159 49l66 -125q-100 -68 -246 -67
q-295 0 -295 329v590h-202v135h202v398z" />
    <glyph glyph-name="dotlessj" unicode="&#x237;" horiz-adv-x="532" 
d="M184 -39v1075h164v-1073q0 -185 -92 -289t-246 -104q-87 -1 -153 24l39 136q50 -16 122 -16t119 67q47 68 47 180z" />
    <glyph glyph-name="circumflex" unicode="&#x2c6;" 
d="M924 1194h-119l-160 174h-41l-160 -174h-118v41l213 293h172l213 -293v-41z" />
    <glyph glyph-name="caron" unicode="&#x2c7;" 
d="M924 1528v-41l-213 -293h-172l-213 293v41h118l160 -174h41l160 174h119z" />
    <glyph glyph-name="breve" unicode="&#x2d8;" 
d="M625 1202q-121 0 -206 72t-100 221l130 16q27 -176 177 -176t175 176l129 -16q-14 -149 -99 -221t-206 -72z" />
    <glyph glyph-name="dotaccent" unicode="&#x2d9;" 
d="M498 1392q0 52 36 88t87 36t88 -37t37 -88t-36 -87t-88 -36t-88 36t-36 88z" />
    <glyph glyph-name="ring" unicode="&#x2da;" 
d="M508 1411q0 -53 34 -89t83 -36t83 36t33 89q0 53 -33 89q-34 36 -83 36t-83 -36t-34 -89zM397 1411q0 95 65 157t163 62q99 0 163 -62t64 -156t-65 -158q-65 -62 -163 -62t-162 62q-65 62 -65 157z" />
    <glyph glyph-name="ogonek" unicode="&#x2db;" 
d="M650 -424q-101 0 -164 46q-62 46 -62 127t66 146q67 65 155 105h111q-195 -102 -195 -227q0 -39 29 -62t84 -23t102 38l55 -91q-80 -59 -181 -59z" />
    <glyph glyph-name="tilde" unicode="&#x2dc;" 
d="M762 1214q-66 0 -152 64t-118 63q-51 0 -74 -116l-127 20q35 236 194 236q66 1 152 -63t119 -64q51 0 73 116l127 -20q-34 -236 -194 -236z" />
    <glyph glyph-name="hungarumlaut" unicode="&#x2dd;" 
d="M610 1194v41l125 293h176v-41l-190 -293h-111zM338 1194v41l125 293h176v-41l-190 -293h-111z" />
    <glyph glyph-name="pi" unicode="&#x3c0;" 
d="M963 891v-891h-164v891h-350v-891h-164v891h-172v145h1022v-145h-172z" />
    <glyph glyph-name="Wgrave" unicode="&#x1e80;" horiz-adv-x="1904" 
d="M1030 1440h-115l-215 293v41h205l125 -293v-41zM1792 1364v-31l-283 -1333h-225l-311 1147h-31l-317 -1147h-224l-288 1333v31h159l242 -1143h31l315 1143h207l307 -1143h31l229 1143h158z" />
    <glyph glyph-name="wgrave" unicode="&#x1e81;" horiz-adv-x="1570" 
d="M854 1194h-115l-215 293v41h205l125 -293v-41zM1489 1036v-41l-279 -995h-182l-219 786h-41l-221 -786h-185l-280 995v41h143l213 -796h41l223 796h168l234 -796h41l201 796h143z" />
    <glyph glyph-name="Wacute" unicode="&#x1e82;" horiz-adv-x="1904" 
d="M885 1440v41l125 293h204v-41l-215 -293h-114zM1792 1364v-31l-283 -1333h-225l-311 1147h-31l-317 -1147h-224l-288 1333v31h159l242 -1143h31l315 1143h207l307 -1143h31l229 1143h158z" />
    <glyph glyph-name="wacute" unicode="&#x1e83;" horiz-adv-x="1570" 
d="M727 1194v41l125 293h205v-41l-215 -293h-115zM1489 1036v-41l-279 -995h-182l-219 786h-41l-221 -786h-185l-280 995v41h143l213 -796h41l223 796h168l234 -796h41l201 796h143z" />
    <glyph glyph-name="Wdieresis" unicode="&#x1e84;" horiz-adv-x="1904" 
d="M1034 1602q0 51 35 86q35 34 86 34t86 -34t35 -86q0 -51 -35 -86t-86 -35t-86 35t-35 86zM621 1602q0 51 34 86q35 34 86 34t86 -34t35 -86q0 -51 -35 -86t-86 -35t-86 35q-34 35 -34 86zM1792 1364v-31l-283 -1333h-225l-311 1147h-31l-317 -1147h-224l-288 1333v31h159
l242 -1143h31l315 1143h207l307 -1143h31l229 1143h158z" />
    <glyph glyph-name="wdieresis" unicode="&#x1e85;" horiz-adv-x="1570" 
d="M877 1356q0 51 34 86q35 35 86 35t86 -35t35 -86t-35 -86t-86 -35t-86 35q-34 35 -34 86zM463 1356q0 51 35 86t86 35t86 -35t35 -86t-35 -86t-86 -35t-86 35t-35 86zM1489 1036v-41l-279 -995h-182l-219 786h-41l-221 -786h-185l-280 995v41h143l213 -796h41l223 796
h168l234 -796h41l201 796h143z" />
    <glyph glyph-name="uni1E8A" unicode="&#x1e8a;" horiz-adv-x="1316" 
d="M532 1637q0 52 36 88t88 36t88 -37t36 -88t-36 -87t-89 -36t-88 36t-35 88zM92 0v41l471 645l-471 637v41h168l379 -510h41l379 510h166v-41l-471 -637l471 -645v-41h-168l-379 532h-37l-381 -532h-168z" />
    <glyph glyph-name="uni1E8B" unicode="&#x1e8b;" horiz-adv-x="1087" 
d="M418 1392q0 52 36 88t88 36t88 -37t36 -88t-36 -87t-89 -36t-88 36t-35 88zM92 0v41l357 494l-328 460v41h153l252 -362h41l246 362h150v-41l-322 -458l354 -496v-41h-157l-273 397h-41l-276 -397h-156z" />
    <glyph glyph-name="Ygrave" unicode="&#x1ef2;" horiz-adv-x="1251" 
d="M709 1440h-115l-215 293v41h205l125 -293v-41zM1194 1364v-41l-485 -799v-524h-170v526l-482 797v41h160l391 -651h37l389 651h160z" />
    <glyph glyph-name="ygrave" unicode="&#x1ef3;" horiz-adv-x="1087" 
d="M608 1194h-114l-215 293v41h204l125 -293v-41zM72 1036h155l299 -817h41l297 817h152v-41l-412 -1069q-137 -356 -416 -356q-147 0 -233 59l70 135q71 -51 161 -51t161 76t116 191l-391 1015v41z" />
    <glyph glyph-name="endash" unicode="&#x2013;" horiz-adv-x="1157" 
d="M113 516v148h931v-148h-931z" />
    <glyph glyph-name="emdash" unicode="&#x2014;" horiz-adv-x="1505" 
d="M113 516v148h1280v-148h-1280z" />
    <glyph glyph-name="quoteleft" unicode="&#x2018;" horiz-adv-x="518" 
d="M264 1219q57 1 95 -39t38 -96t-38 -96t-97 -40t-100 45t-41 123t38 165t130 235l92 -56l-117 -203v-38z" />
    <glyph glyph-name="quoteright" unicode="&#x2019;" horiz-adv-x="518" 
d="M121 1363q0 56 39 96t98 40t99 -45t40 -123t-37 -166t-129 -233l-92 55l117 203v39q-57 0 -96 39t-39 95z" />
    <glyph glyph-name="quotesinglbase" unicode="&#x201a;" horiz-adv-x="518" 
d="M256 -20q-57 0 -96 39t-39 95t39 96t98 40t99 -45t40 -123t-37 -166t-129 -233l-92 55l117 203v39z" />
    <glyph glyph-name="quotedblleft" unicode="&#x201c;" horiz-adv-x="940" 
d="M686 1219q57 1 95 -39t38 -96t-38 -96t-97 -40t-100 45t-41 123t38 165t130 235l92 -56l-117 -203v-38zM264 1219q57 1 95 -39t38 -96t-38 -96t-97 -40t-100 45t-41 123t38 165t130 235l92 -56l-117 -203v-38z" />
    <glyph glyph-name="quotedblright" unicode="&#x201d;" horiz-adv-x="940" 
d="M121 1363q0 56 39 96t98 40t99 -45t40 -123t-37 -166t-129 -233l-92 55l117 203v39q-57 0 -96 39t-39 95zM543 1363q0 56 39 96t98 40t99 -45t40 -123t-37 -166t-129 -233l-92 55l117 203v39q-57 0 -96 39t-39 95z" />
    <glyph glyph-name="quotedblbase" unicode="&#x201e;" horiz-adv-x="940" 
d="M678 -20q-57 0 -96 39t-39 95t39 96t98 40t99 -45t40 -123t-37 -166t-129 -233l-92 55l117 203v39zM256 -20q-57 0 -96 39t-39 95t39 96t98 40t99 -45t40 -123t-37 -166t-129 -233l-92 55l117 203v39z" />
    <glyph glyph-name="dagger" unicode="&#x2020;" horiz-adv-x="1042" 
d="M586 442h-129v559h-283v123h283v240h129v-240h282v-123h-282v-559z" />
    <glyph glyph-name="daggerdbl" unicode="&#x2021;" horiz-adv-x="1042" 
d="M586 442h-129v240h-283v123h283v196h-283v123h283v240h129v-240h282v-123h-282v-196h282v-123h-282v-240z" />
    <glyph glyph-name="bullet" unicode="&#x2022;" horiz-adv-x="944" 
d="M472 371q-112 -1 -190 77t-77 190q0 112 78 190q77 78 189 77q112 0 190 -78q78 -77 78 -189t-78 -190t-190 -77z" />
    <glyph glyph-name="ellipsis" unicode="&#x2026;" horiz-adv-x="1638" 
d="M1227 119q0 57 40 98t99 41t99 -41t40 -98t-40 -99t-99 -40q-59 0 -99 41t-40 98zM680 119q0 57 41 98t98 41t99 -41t40 -98q0 -57 -40 -99q-40 -40 -98 -40t-99 41t-41 98zM133 119q0 57 40 98t99 41q60 0 100 -41t40 -98t-40 -99t-100 -40q-60 0 -99 41q-40 41 -40 98z
" />
    <glyph glyph-name="perthousand" unicode="&#x2030;" horiz-adv-x="1382" 
d="M938 260q0 -158 104 -158t105 158q-1 158 -105 158t-104 -158zM1270 260q0 -127 -58 -202q-58 -74 -170 -74q-113 0 -170 74t-57 202q0 127 57 202t170 75q112 0 170 -75t58 -202zM418 260q0 -158 104 -158t105 158q-1 158 -105 158t-104 -158zM750 260q0 -127 -58 -202
q-58 -74 -170 -74q-113 0 -170 74t-57 202q0 127 57 202t170 75q112 0 170 -75t58 -202zM113 453v106l780 440h43v-106l-780 -440h-43zM260 1108q0 -158 104 -158t105 158q-1 158 -105 158t-104 -158zM592 1108q0 -127 -57 -202t-170 -75t-170 75t-58 202t57 202
q58 74 171 74t170 -74t57 -202z" />
    <glyph glyph-name="guilsinglleft" unicode="&#x2039;" horiz-adv-x="714" 
d="M561 102h-137l-270 406l270 405h137v-41l-219 -364l219 -365v-41z" />
    <glyph glyph-name="guilsinglright" unicode="&#x203a;" horiz-adv-x="714" 
d="M154 913h137l270 -405l-270 -406h-137v41l219 365l-219 364v41z" />
    <glyph glyph-name="fraction" unicode="&#x2044;" horiz-adv-x="645" 
d="M-205 0v41l924 1323h131v-41l-924 -1323h-131z" />
    <glyph glyph-name="uni2070" unicode="&#x2070;" horiz-adv-x="798" 
d="M399 567q-133 -1 -212 95t-78 309q0 408 290 407q291 0 291 -407q0 -213 -79 -309t-212 -95zM399 1264q-141 0 -141 -291t142 -291t143 289q0 157 -36 225t-108 68z" />
    <glyph glyph-name="uni2074" unicode="&#x2074;" horiz-adv-x="798" 
d="M463 1227h-41l-158 -336v-41h199v377zM590 1364v-514h100v-115h-100v-151h-127v151h-354v121l260 508h221z" />
    <glyph glyph-name="uni2075" unicode="&#x2075;" horiz-adv-x="798" 
d="M395 567q-127 1 -193 61t-81 142l135 41q31 -127 145 -127q55 0 88 43t33 111t-30 110t-86 41q-86 0 -127 -84h-125l41 459h421v-121h-307l-20 -192h41q52 47 128 47t142 -64t66 -188q0 -125 -72 -202t-199 -77z" />
    <glyph glyph-name="uni2076" unicode="&#x2076;" horiz-adv-x="798" 
d="M258 1024h41q51 76 149 76t163 -68t65 -192t-77 -199q-77 -74 -201 -74q-124 1 -201 101q-76 100 -76 305t78 305t217 100q96 0 158 -46t81 -107l-118 -58q-37 96 -125 97q-62 0 -108 -64t-46 -176zM530 838q0 68 -32 108t-90 39q-56 0 -94 -40q-38 -39 -38 -107t38 -112
t94 -44t89 44t33 112z" />
    <glyph glyph-name="uni2077" unicode="&#x2077;" horiz-adv-x="798" 
d="M129 1130v234h539v-147q-96 -49 -169 -210t-73 -423h-156q0 229 74 393t160 219v41h-252v-107h-123z" />
    <glyph glyph-name="uni2078" unicode="&#x2078;" horiz-adv-x="798" 
d="M399 565q-131 -1 -203 63t-73 169q0 63 38 113t93 59v39q-49 10 -79 56t-30 99q0 91 70 153q71 62 185 62t184 -61t69 -154q1 -53 -29 -99t-79 -56v-39q55 -9 93 -59t38 -113q0 -104 -73 -168t-204 -64zM399 1038q53 0 85 34t32 84t-32 82t-85 32t-85 -32t-32 -82t32 -84
t85 -34zM399 674q63 0 100 35q36 35 36 95t-37 96q-36 36 -98 36t-99 -36t-37 -96t36 -95t99 -35z" />
    <glyph glyph-name="uni2079" unicode="&#x2079;" horiz-adv-x="798" 
d="M539 922h-41q-52 -76 -150 -76t-163 68t-64 192q0 125 77 199q78 73 202 73t200 -100t76 -305t-78 -305t-217 -101q-96 0 -159 46q-62 46 -81 108l119 57q37 -96 125 -96q63 0 109 64q45 65 45 176zM266 1108q0 -68 33 -108t90 -40t94 40t37 108t-38 112t-93 44t-89 -44
t-34 -112z" />
    <glyph glyph-name="parenleft.sups" unicode="&#x207d;" horiz-adv-x="798" 
d="M389 975q0 -141 47 -229t133 -97v-106q-147 1 -243 115t-97 315q1 201 97 317t243 115v-107q-86 -6 -133 -94t-47 -229z" />
    <glyph glyph-name="parenright.sups" unicode="&#x207e;" horiz-adv-x="798" 
d="M410 975q0 141 -48 229t-133 94v107q147 0 243 -116q96 -117 97 -317q0 -200 -96 -315t-244 -114v106q85 9 133 97t48 229z" />
    <glyph glyph-name="uni2080" unicode="&#x2080;" horiz-adv-x="798" 
d="M399 -16q-133 0 -212 95t-78 308q1 408 291 408t290 -408q0 -213 -79 -308t-212 -95zM399 680q-141 0 -141 -291t142 -291t143 289q0 157 -36 225t-108 68z" />
    <glyph glyph-name="uni2081" unicode="&#x2081;" horiz-adv-x="798" 
d="M530 0h-141v565h-41l-102 -86l-80 92l235 209h129v-780z" />
    <glyph glyph-name="uni2082" unicode="&#x2082;" horiz-adv-x="798" 
d="M362 127h289v-127h-497v115l268 293q84 94 84 153t-28 89t-77 30q-98 0 -129 -129l-129 41q14 78 80 140t181 62q116 0 180 -60t63 -152q0 -117 -121 -242l-164 -172v-41z" />
    <glyph glyph-name="uni2083" unicode="&#x2083;" horiz-adv-x="798" 
d="M668 203q0 -87 -71 -153t-200 -66t-195 60t-81 142l135 41q31 -129 141 -129q53 0 87 36t34 93q0 119 -137 119h-47v107h41q67 -1 97 33t30 85t-29 80t-76 29q-96 0 -127 -129l-129 41q14 80 79 141q66 61 182 61t180 -60q64 -62 63 -154q0 -56 -30 -100t-78 -54v-41
q53 -4 92 -50t39 -132z" />
    <glyph glyph-name="uni2084" unicode="&#x2084;" horiz-adv-x="798" 
d="M463 643h-41l-158 -336v-41h199v377zM590 780v-514h100v-114h-100v-152h-127v152h-354v120l260 508h221z" />
    <glyph glyph-name="uni2085" unicode="&#x2085;" horiz-adv-x="798" 
d="M666 262q0 -126 -72 -202t-199 -76t-193 60t-81 142l135 41q31 -127 145 -127q55 0 88 43t33 111t-30 110q-31 42 -86 42q-86 0 -127 -84h-125l41 458h421v-121h-307l-20 -192h41q52 47 128 47t142 -63t66 -189z" />
    <glyph glyph-name="uni2086" unicode="&#x2086;" horiz-adv-x="798" 
d="M258 440h41q51 76 149 76t163 -68t65 -192q0 -125 -77 -199q-77 -73 -201 -73t-201 100q-76 100 -76 305t78 305t217 101q96 0 158 -46t81 -108l-118 -57q-37 96 -125 96q-62 0 -108 -64t-46 -176zM530 254q0 68 -32 108t-90 39q-56 0 -94 -40q-38 -39 -38 -107t38 -112
t94 -44t89 44t33 112z" />
    <glyph glyph-name="uni2087" unicode="&#x2087;" horiz-adv-x="798" 
d="M129 547v233h539v-147q-96 -49 -169 -210t-73 -423h-156q0 229 74 393t160 219v41h-252v-106h-123z" />
    <glyph glyph-name="uni2088" unicode="&#x2088;" horiz-adv-x="798" 
d="M399 -16q-131 0 -203 63t-73 168q0 63 38 113t93 59v39q-49 10 -79 56t-30 100q0 92 70 153q71 61 185 61t184 -60q70 -62 69 -154q0 -53 -29 -100q-30 -46 -79 -56v-39q55 -8 93 -58t38 -114q0 -103 -73 -167t-204 -64zM399 457q53 -1 85 33t32 84t-32 82t-85 32
t-85 -32t-32 -82t32 -84q32 -33 85 -33zM399 92q63 0 100 35q36 35 36 95t-37 96q-36 36 -98 36t-99 -36t-37 -96t36 -95t99 -35z" />
    <glyph glyph-name="uni2089" unicode="&#x2089;" horiz-adv-x="798" 
d="M539 338h-41q-52 -76 -150 -76t-163 68t-65 192t78 199q78 74 202 74q124 -1 200 -101t76 -305t-78 -305t-217 -100q-96 0 -159 46q-62 46 -81 107l119 58q37 -96 125 -97q63 0 109 64t45 176zM266 524q0 -68 33 -108t90 -39q57 0 94 40q37 39 37 107t-38 112t-93 44
t-89 -44t-34 -112z" />
    <glyph glyph-name="Euro" unicode="&#x20ac;" horiz-adv-x="1308" 
d="M408 681q0 -52 2 -77h403v-135h-391q57 -340 334 -340q120 0 192 72t94 192l164 -39q-36 -184 -158 -279t-290 -95q-434 0 -512 489h-154v135h141q-2 25 -2 77t2 79h-141v135h154q78 489 512 489q168 0 291 -95t157 -279l-164 -39q-22 121 -94 193t-192 71
q-276 0 -334 -340h391v-135h-403q-2 -27 -2 -79z" />
    <glyph glyph-name="trademark" unicode="&#x2122;" 
d="M1071 760v440h-41l-88 -440h-123l-88 440h-41v-440h-100v604h184l88 -449h41l88 449h183v-604h-103zM33 1264v100h469v-100h-178v-504h-115v504h-176z" />
    <glyph glyph-name="Omega" unicode="&#x2126;" horiz-adv-x="1470" 
d="M735 1235q-211 0 -315 -144t-105 -409q0 -463 314 -547v-135h-527v135h250v41q-111 76 -164 197t-53 309q0 338 160 520q161 182 441 182t440 -182t159 -520q0 -188 -53 -309t-164 -197v-41h250v-135h-526v135q313 84 313 547q0 264 -104 409q-105 144 -316 144z" />
    <glyph glyph-name="uni2153" unicode="&#x2153;" horiz-adv-x="1761" 
d="M360 0v41l924 1323h131v-41l-923 -1323h-132zM500 584h-142v565h-41l-102 -86l-80 92l236 209h129v-780zM1653 203q0 -87 -71 -153t-200 -66q-128 0 -194 60t-82 142l135 41q31 -129 141 -129q53 0 87 36t34 93q0 119 -137 119h-47v107h41q66 -1 96 33t31 85q0 51 -29 80
t-76 29q-96 0 -127 -129l-129 41q14 80 79 141t181 61t180 -60q64 -62 64 -154q0 -55 -29 -100q-30 -44 -79 -54v-41q53 -4 92 -50t39 -132z" />
    <glyph glyph-name="uni2154" unicode="&#x2154;" horiz-adv-x="1761" 
d="M1453 514q77 0 143 -63t65 -189q1 -126 -71 -202t-199 -76t-193 60t-82 142l135 41q31 -127 146 -127q55 0 88 43t33 111t-31 110t-86 42q-86 0 -127 -84h-125l41 458h422v-121h-307l-21 -192h41q51 47 128 47zM360 0v41l924 1323h131v-41l-923 -1323h-132zM500 584h-142
v565h-41l-102 -86l-80 92l236 209h129v-780z" />
    <glyph glyph-name="uni2155" unicode="&#x2155;" horiz-adv-x="1761" 
d="M360 0v41l924 1323h131v-41l-923 -1323h-132zM328 711h288v-127h-497v114l268 293q84 93 84 153t-28 90t-76 30q-98 0 -129 -129l-129 41q14 78 79 140q66 62 181 62t179 -60t64 -153q0 -117 -120 -241l-164 -172v-41zM1653 203q0 -87 -71 -153t-200 -66q-128 0 -194 60
t-82 142l135 41q31 -129 141 -129q53 0 87 36t34 93q0 119 -137 119h-47v107h41q66 -1 96 33t31 85q0 51 -29 80t-76 29q-96 0 -127 -129l-129 41q14 80 79 141t181 61t180 -60q64 -62 64 -154q0 -55 -29 -100q-30 -44 -79 -54v-41q53 -4 92 -50t39 -132z" />
    <glyph glyph-name="uni2156" unicode="&#x2156;" horiz-adv-x="1761" 
d="M1453 514q77 0 143 -63t65 -189q1 -126 -71 -202t-199 -76t-193 60t-82 142l135 41q31 -127 146 -127q55 0 88 43t33 111t-31 110t-86 42q-86 0 -127 -84h-125l41 458h422v-121h-307l-21 -192h41q51 47 128 47zM328 711h288v-127h-497v114l268 293q84 93 84 153t-28 90
t-76 30q-98 0 -129 -129l-129 41q14 78 79 140q66 62 181 62t179 -60t64 -153q0 -117 -120 -241l-164 -172v-41zM360 0v41l924 1323h131v-41l-923 -1323h-132z" />
    <glyph glyph-name="uni2157" unicode="&#x2157;" horiz-adv-x="1761" 
d="M1453 514q77 0 143 -63t65 -189q1 -126 -71 -202t-199 -76t-193 60t-82 142l135 41q31 -127 146 -127q55 0 88 43t33 111t-31 110t-86 42q-86 0 -127 -84h-125l41 458h422v-121h-307l-21 -192h41q51 47 128 47zM360 0v41l924 1323h131v-41l-923 -1323h-132zM647 787
q-1 -86 -71 -153t-199 -67q-129 1 -195 61t-82 142l136 41q31 -129 141 -129q53 0 87 36t34 93q0 119 -138 119h-47v106h41q66 0 97 34t30 85q0 51 -28 80q-29 29 -76 29q-96 0 -127 -129l-129 41q14 80 79 141q66 61 182 61t179 -61t64 -154q0 -55 -30 -99t-79 -54v-41
q53 -4 92 -50t39 -132z" />
    <glyph glyph-name="uni2158" unicode="&#x2158;" horiz-adv-x="1761" 
d="M432 1227h-41l-158 -336v-41h199v377zM559 1364v-514h100v-115h-100v-151h-127v151h-354v121l260 508h221zM1453 514q77 0 143 -63t65 -189q1 -126 -71 -202t-199 -76t-193 60t-82 142l135 41q31 -127 146 -127q55 0 88 43t33 111t-31 110t-86 42q-86 0 -127 -84h-125
l41 458h422v-121h-307l-21 -192h41q51 47 128 47zM360 0v41l924 1323h131v-41l-923 -1323h-132z" />
    <glyph glyph-name="uni2159" unicode="&#x2159;" horiz-adv-x="1761" 
d="M1247 440h41q52 76 150 76t163 -68t65 -192q0 -125 -78 -199q-78 -73 -202 -73t-200 100t-76 305t78 305t217 101q97 0 159 -46t81 -108l-119 -57q-37 96 -125 96q-63 0 -109 -64t-45 -176zM1520 254q0 68 -33 108t-90 39q-57 0 -94 -40q-37 -39 -37 -107t38 -112t93 -44
t89 44t34 112zM500 584h-142v565h-41l-102 -86l-80 92l236 209h129v-780zM360 0v41l924 1323h131v-41l-923 -1323h-132z" />
    <glyph glyph-name="uni215A" unicode="&#x215a;" horiz-adv-x="1761" 
d="M395 567q-127 1 -193 61t-81 142l135 41q31 -127 145 -127q55 0 88 43t33 111t-30 110t-86 41q-86 0 -127 -84h-125l41 459h421v-121h-307l-20 -192h41q52 47 128 47t142 -64t66 -188q0 -125 -72 -202t-199 -77zM1247 440h41q52 76 150 76t163 -68t65 -192
q0 -125 -78 -199q-78 -73 -202 -73t-200 100t-76 305t78 305t217 101q97 0 159 -46t81 -108l-119 -57q-37 96 -125 96q-63 0 -109 -64t-45 -176zM1520 254q0 68 -33 108t-90 39q-57 0 -94 -40q-37 -39 -37 -107t38 -112t93 -44t89 44t34 112zM360 0v41l924 1323h131v-41
l-923 -1323h-132z" />
    <glyph glyph-name="uni215B" unicode="&#x215b;" horiz-adv-x="1761" 
d="M1403 -16q-131 0 -204 63t-73 168q0 63 38 113t93 59v39q-49 10 -79 56t-29 100q0 92 70 153q71 61 185 61t184 -60q70 -62 69 -154q0 -54 -30 -100t-79 -56v-39q55 -8 93 -58t38 -114q0 -104 -72 -168q-73 -63 -204 -63zM1403 457q53 -1 85 33t32 84t-32 82t-85 32
t-85 -32t-32 -82t32 -84t85 -33zM1403 92q63 0 99 35t36 95t-37 96t-98 36t-98 -36t-37 -96t36 -95t99 -35zM500 584h-142v565h-41l-102 -86l-80 92l236 209h129v-780zM360 0v41l924 1323h131v-41l-923 -1323h-132z" />
    <glyph glyph-name="uni215C" unicode="&#x215c;" horiz-adv-x="1761" 
d="M395 567q-127 1 -193 61t-81 142l135 41q31 -127 145 -127q55 0 88 43t33 111t-30 110t-86 41q-86 0 -127 -84h-125l41 459h421v-121h-307l-20 -192h41q52 47 128 47t142 -64t66 -188q0 -125 -72 -202t-199 -77zM1403 -16q-131 0 -204 63t-73 168q0 63 38 113t93 59v39
q-49 10 -79 56t-29 100q0 92 70 153q71 61 185 61t184 -60q70 -62 69 -154q0 -54 -30 -100t-79 -56v-39q55 -8 93 -58t38 -114q0 -104 -72 -168q-73 -63 -204 -63zM1403 457q53 -1 85 33t32 84t-32 82t-85 32t-85 -32t-32 -82t32 -84t85 -33zM1403 92q63 0 99 35t36 95
t-37 96t-98 36t-98 -36t-37 -96t36 -95t99 -35zM360 0v41l924 1323h131v-41l-923 -1323h-132z" />
    <glyph glyph-name="uni215D" unicode="&#x215d;" horiz-adv-x="1761" 
d="M1403 -16q-131 0 -204 63t-73 168q0 63 38 113t93 59v39q-49 10 -79 56t-29 100q0 92 70 153q71 61 185 61t184 -60q70 -62 69 -154q0 -54 -30 -100t-79 -56v-39q55 -8 93 -58t38 -114q0 -104 -72 -168q-73 -63 -204 -63zM1403 457q53 -1 85 33t32 84t-32 82t-85 32
t-85 -32t-32 -82t32 -84t85 -33zM1403 92q63 0 99 35t36 95t-37 96t-98 36t-98 -36t-37 -96t36 -95t99 -35zM647 787q-1 -86 -71 -153t-199 -67q-129 1 -195 61t-82 142l136 41q31 -129 141 -129q53 0 87 36t34 93q0 119 -138 119h-47v106h41q66 0 97 34t30 85q0 51 -28 80
q-29 29 -76 29q-96 0 -127 -129l-129 41q14 80 79 141q66 61 182 61t179 -61t64 -154q0 -55 -30 -99t-79 -54v-41q53 -4 92 -50t39 -132zM360 0v41l924 1323h131v-41l-923 -1323h-132z" />
    <glyph glyph-name="uni215E" unicode="&#x215e;" horiz-adv-x="1761" 
d="M195 1130v234h538v-147q-96 -49 -169 -210t-72 -423h-156q0 229 74 393t159 219v41h-252v-107h-122zM1403 -16q-131 0 -204 63t-73 168q0 63 38 113t93 59v39q-49 10 -79 56t-29 100q0 92 70 153q71 61 185 61t184 -60q70 -62 69 -154q0 -54 -30 -100t-79 -56v-39
q55 -8 93 -58t38 -114q0 -104 -72 -168q-73 -63 -204 -63zM1403 457q53 -1 85 33t32 84t-32 82t-85 32t-85 -32t-32 -82t32 -84t85 -33zM1403 92q63 0 99 35t36 95t-37 96t-98 36t-98 -36t-37 -96t36 -95t99 -35zM360 0v41l924 1323h131v-41l-923 -1323h-132z" />
    <glyph glyph-name="uni2190" unicode="&#x2190;" horiz-adv-x="1290" 
d="M682 1114v-41l-328 -323v-41h879v-144h-879v-41l328 -323v-41h-143l-461 456v41l461 457h143z" />
    <glyph glyph-name="uni2191" unicode="&#x2191;" horiz-adv-x="1290" 
d="M1122 600h-41l-323 328h-41v-879h-144v879h-41l-323 -328h-41v143l457 461h41l456 -461v-143z" />
    <glyph glyph-name="uni2192" unicode="&#x2192;" horiz-adv-x="1290" 
d="M608 160v41l328 323v41h-879v144h879v41l-328 323v41h144l460 -457v-41l-460 -456h-144z" />
    <glyph glyph-name="uni2193" unicode="&#x2193;" horiz-adv-x="1290" 
d="M168 674h41l323 -328h41v879h144v-879h41l323 328h41v-144l-456 -460h-41l-457 460v144z" />
    <glyph glyph-name="uni2196" unicode="&#x2196;" horiz-adv-x="1290" 
d="M334 289h-41l-90 90v678h678l90 -90v-41h-496v-41l610 -609l-102 -102l-608 610h-41v-495z" />
    <glyph glyph-name="uni2197" unicode="&#x2197;" horiz-adv-x="1290" 
d="M948 289v495h-41l-608 -610l-102 102l610 609v41h-496v41l90 90h678v-678l-90 -90h-41z" />
    <glyph glyph-name="uni2198" unicode="&#x2198;" horiz-adv-x="1290" 
d="M954 926h41l90 -90v-678h-677l-91 90v41h496v41l-610 608l102 102l608 -610h41v496z" />
    <glyph glyph-name="uni2199" unicode="&#x2199;" horiz-adv-x="1290" 
d="M334 926v-496h41l608 610l102 -102l-610 -608v-41h496v-41l-90 -90h-678v678l90 90h41z" />
    <glyph glyph-name="partialdiff" unicode="&#x2202;" 
d="M625 123q151 -1 225 107t74 289t-75 287t-227 107q-152 0 -222 -105q-71 -105 -70 -288q0 -397 295 -397zM1098 602q0 -623 -480 -622q-214 0 -338 142t-124 394t123 397t295 145t245 -134h45q-35 129 -183 273t-323 202l54 137q221 -78 381 -239q305 -307 305 -695z" />
    <glyph glyph-name="Delta" unicode="&#x2206;" 
d="M643 1139l-362 -992h772l-369 992h-41zM82 0v51l485 1313h201l494 -1313v-51h-1180z" />
    <glyph glyph-name="product" unicode="&#x220f;" horiz-adv-x="1392" 
d="M184 0v1364h1024v-1364h-170v1214h-684v-1214h-170z" />
    <glyph glyph-name="minus" unicode="&#x2212;" 
d="M238 526v146h772v-146h-772z" />
    <glyph glyph-name="radical" unicode="&#x221a;" 
d="M1206 1364v-41l-528 -1323h-189l-399 995v41h158l317 -823h43l445 1151h153z" />
    <glyph glyph-name="infinity" unicode="&#x221e;" 
d="M356 494q106 0 197 161q-92 160 -197 160q-70 0 -112 -47t-41 -113q-1 -65 41 -113t112 -48zM891 815q-109 0 -199 -162q92 -160 199 -159q72 0 113 47q40 47 40 113t-40 114q-41 47 -113 47zM362 377q-138 0 -216 78q-76 77 -76 199t76 200q77 78 214 78t242 -141h41
q105 141 243 141t215 -78t77 -200t-77 -200t-217 -77q-140 0 -241 139h-41q-102 -139 -240 -139z" />
    <glyph glyph-name="integral" unicode="&#x222b;" 
d="M668 1110v-1186q0 -184 -92 -288t-246 -105q-88 0 -154 25l39 135q49 -17 122 -17t120 68t47 180v1188q0 406 332 406q137 0 239 -68l-67 -127q-70 51 -163 51t-135 -55t-42 -207z" />
    <glyph glyph-name="approxequal" unicode="&#x2248;" 
d="M408 940q84 0 229 -59t183 -59t58 30q19 31 35 100l136 -20q-35 -250 -215 -250q-78 0 -222 59t-183 59q-37 0 -57 -28q-20 -30 -36 -98l-137 20q16 114 71 180q54 66 138 66zM834 264q-78 0 -222 60t-183 59q-37 1 -57 -29t-36 -98l-137 20q16 113 71 180q54 66 138 66
t229 -59t183 -59t58 30q19 31 35 101l136 -21q-35 -250 -215 -250z" />
    <glyph glyph-name="notequal" unicode="&#x2260;" 
d="M633 438h377v-145h-484l-127 -221l-118 67l88 154h-131v145h215l163 281v41h-378v145h485l127 219l117 -65l-88 -154h131v-145h-215l-162 -281v-41z" />
    <glyph glyph-name="lessequal" unicode="&#x2264;" 
d="M1030 311h-41l-772 314v127l772 313h41v-139l-557 -217v-41l557 -217v-140zM217 0v145h813v-145h-813z" />
    <glyph glyph-name="greaterequal" unicode="&#x2265;" 
d="M217 1065h41l772 -313v-127l-772 -314h-41v140l557 217v41l-557 217v139zM1030 145v-145h-813v145h813z" />
    <glyph glyph-name="lozenge" unicode="&#x25ca;" 
d="M637 170l358 510l-358 514h-41l-354 -514l354 -510h41zM1188 707v-52l-467 -655h-201l-459 655v52l459 657h201z" />
    <glyph glyph-name="commaaccent" unicode="&#xf6c3;" 
d="M612 -356q-53 0 -86 36q-32 36 -32 88q0 54 36 91q38 37 92 37t92 -42t38 -108t-12 -98q-12 -33 -19 -51q-7 -19 -23 -49t-24 -44t-30 -50t-30 -50l-88 47l86 152v41z" />
    <glyph glyph-name="Jacute" horiz-adv-x="1087" 
d="M748 1440v41l124 293h205v-41l-215 -293h-114zM475 125q266 0 266 311v928h170v-930q-1 -219 -113 -337t-315 -117q-354 0 -432 319l154 49q27 -100 95 -162q69 -61 175 -61z" />
    <glyph glyph-name="i.trk" horiz-adv-x="532" 
d="M143 1391q0 53 36 89t87 36t87 -36t36 -89t-36 -89t-87 -36t-87 36t-36 89zM348 0h-164v1036h164v-1036z" />
    <glyph glyph-name="jacute" horiz-adv-x="532" 
d="M201 1194v41l125 293h204v-41l-215 -293h-114zM184 -39v1075h164v-1073q0 -185 -92 -289t-246 -104q-87 -1 -153 24l39 136q50 -16 122 -16t119 67q47 68 47 180z" />
    <glyph glyph-name="ringacute" 
d="M508 1411q0 -53 34 -89t83 -36t83 36t33 89q0 53 -33 89q-34 36 -83 36t-83 -36t-34 -89zM838 1786v-41l-160 -80v-41q78 -14 126 -74t48 -146q0 -88 -65 -150t-163 -62t-162 62q-65 62 -65 148t52 150l176 234h213z" />
    <glyph glyph-name="commatop" 
d="M633 1423q53 1 86 -35t33 -90t-37 -90q-37 -37 -91 -37t-93 42q-37 42 -37 107t12 98q12 34 18 52t22 48t25 45q8 14 30 50t30 50l88 -47l-86 -152v-41z" />
    <glyph glyph-name="caron.slovak" 
d="M750 1364v-41l-125 -334h-82v375h207z" />
    <glyph glyph-name="parenleft.subs" horiz-adv-x="798" 
d="M389 391q0 -141 47 -229t133 -96v-107q-147 0 -243 115q-96 116 -96 316t96 316t243 115v-106q-86 -7 -133 -95t-47 -229z" />
    <glyph glyph-name="parenright.subs" horiz-adv-x="798" 
d="M410 391q0 141 -48 229t-133 95v106q147 0 244 -115q96 -116 96 -317t-96 -315t-244 -115v107q85 8 133 96t48 229z" />
    <glyph glyph-name="bbox" horiz-adv-x="163" 
d="M51 -637v2554h62v-2554h-62z" />
    </font>
</defs>
</svg>
